<svg id="Layer_1" data-name="Layer 1" xmlns="http://www.w3.org/2000/svg" viewBox="0 0 16 16"><path d="M9.3,5a.5.5,0,1,1-.5-.5A.5.5,0,0,1,9.3,5Zm6-.55a.36.36,0,0,0,0-.1l0-.09-.06-.07-.07-.08,0,0-6-4h0L9,0A.65.65,0,0,0,8.8,0H8.71a.44.44,0,0,0-.19.07h0l-6,4,0,0-.07.08,0,.07a.45.45,0,0,0-.06.19s0,0,0,0V6h1V4.76L8.8,1.1l5.5,3.66V15H2.3v.5a.5.5,0,0,0,.5.5h12a.5.5,0,0,0,.5-.5V4.5S15.29,4.47,15.29,4.45ZM2.86,12.27V9h.91c.3,0,.36-.13.36-.41s-.06-.41-.36-.41H1.08c-.29,0-.38.12-.38.41S.79,9,1.08,9H2v3.3c0,.28.13.38.43.38S2.86,12.55,2.86,12.27Zm3-.42a1.29,1.29,0,0,1-.67-.2.73.73,0,0,0-.35-.12.47.47,0,0,0-.4.47.35.35,0,0,0,.2.31,2,2,0,0,0,1.19.33c1.08,0,1.54-.61,1.54-1.34S6.81,10.16,6,9.9c-.4-.12-.62-.25-.62-.56s.2-.45.57-.45a1.26,1.26,0,0,1,.61.16.76.76,0,0,0,.32.11.45.45,0,0,0,.39-.47A.37.37,0,0,0,7,8.34a2.33,2.33,0,0,0-1.08-.25,1.3,1.3,0,0,0-1.46,1.3c0,.77.49,1.08,1.24,1.32.46.15.74.28.74.62S6.28,11.85,5.83,11.85ZM10,8.5V10H8.5v1H10v1.5h1V11h1.5V10H11V8.5Z"/></svg>