<svg id="Layer_1" data-name="Layer 1" xmlns="http://www.w3.org/2000/svg" viewBox="0 0 16 16"><path d="M9.88,4.05a2,2,0,0,0-2,2,2,2,0,0,0,4,0A2,2,0,0,0,9.88,4.05Zm.79,2.61a1,1,0,0,1-1.57,0,1,1,0,0,1-.22-.61,1,1,0,1,1,2,0A1,1,0,0,1,10.67,6.66Zm3.94,3.05a5.9,5.9,0,0,0,1.27-3.66,6,6,0,0,0-12,0A5.91,5.91,0,0,0,5.16,9.71,6,6,0,0,0,8.85,12h-3a.5.5,0,0,0-.5.5V13.8A4.64,4.64,0,0,1,1.69,9.48a1,1,0,0,0,.43-.8,1,1,0,0,0-2,0,1,1,0,0,0,.57.9,5.63,5.63,0,0,0,4.69,5.23v.64a.5.5,0,0,0,.5.5h8a.5.5,0,0,0,.5-.5v-3a.5.5,0,0,0-.5-.5h-3A6,6,0,0,0,14.61,9.71ZM13.38,13v2h-7V13Zm-3.5-1.9A4.93,4.93,0,0,1,6,9.09a4.9,4.9,0,0,1-1.07-3,5,5,0,0,1,10,0,4.89,4.89,0,0,1-1.06,3A4.94,4.94,0,0,1,9.88,11.05Z"/></svg>