<svg id="Layer_1" data-name="Layer 1" xmlns="http://www.w3.org/2000/svg" viewBox="0 0 16 16"><path d="M6.19,3l-.8-.6A5.71,5.71,0,0,1,10,0a5.78,5.78,0,0,1,5.77,5.77,5.67,5.67,0,0,1-1.22,3.51A5.75,5.75,0,0,1,13,10.72l-.52-.85a4.7,4.7,0,0,0,1.28-1.16,4.71,4.71,0,0,0,1-2.9A4.77,4.77,0,0,0,6.19,3ZM10,3.87a1.94,1.94,0,0,1,1.94,1.94A1.88,1.88,0,0,1,11.53,7,1.93,1.93,0,1,1,10,3.87Zm0,1a.94.94,0,0,0-.93.94.86.86,0,0,0,.2.57,1,1,0,0,0,1.47,0,.92.92,0,0,0,.2-.57A.94.94,0,0,0,10,4.87ZM.55,1.16,14.87,15.48l.71-.71L1.26.45ZM8.71,11.43l.23-1A4.81,4.81,0,0,1,6.25,8.71,4.68,4.68,0,0,1,5.39,7l-1,.26a5.9,5.9,0,0,0,4.29,4.17ZM6.56,15h5.73v1H6.5a.88.88,0,0,1-.94-.83v-.55A5.64,5.64,0,0,1,.8,9.34a1,1,0,1,1,1.43-.9,1,1,0,0,1-.42.8,4.62,4.62,0,0,0,3.75,4.32v-.44a.88.88,0,0,1,.94-.83h3.67v1H6.56Z"/></svg>