<svg id="Layer_1" data-name="Layer 1" xmlns="http://www.w3.org/2000/svg" viewBox="0 0 16 16"><path d="M1.5,12.79H4.82v1H1.5A1.51,1.51,0,0,1,.17,11.53L6.65.85A1.48,1.48,0,0,1,8,.08,1.5,1.5,0,0,1,9.3.86L11,3.62l-.86.52L8.44,1.37A.53.53,0,0,0,8,1.08a.51.51,0,0,0-.45.27L1,12a.49.49,0,0,0,0,.5A.5.5,0,0,0,1.5,12.79ZM15.29,16l-3.42-3.42a4.15,4.15,0,1,1-4.4-7V4.08h1V5.23a4.6,4.6,0,0,1,.84-.08,4.14,4.14,0,0,1,3.27,6.72L16,15.29ZM12.48,9.31A3.16,3.16,0,0,0,9.72,6.19V9.08h-1V6.21a3.16,3.16,0,1,0,3.76,3.1ZM9.22,10a.75.75,0,1,0,.75.75A.76.76,0,0,0,9.22,10Z"/></svg>