<svg id="Layer_1" data-name="Layer 1" xmlns="http://www.w3.org/2000/svg" viewBox="0 0 16 16"><path d="M11.45,6.57c.13-.47.28-1,.48-1.62h2.7c.16.53.33,1.1.45,1.62.06.23.15.35.37.35s.55-.1.55-.39a2.14,2.14,0,0,0-.09-.46c-.13-.55-.32-1.15-.53-1.82A27.07,27.07,0,0,0,13.85.37C13.72.12,13.62,0,13.33,0h0a.5.5,0,0,0-.54.33,27.51,27.51,0,0,0-1.61,3.94c-.21.65-.39,1.19-.53,1.73a2.09,2.09,0,0,0-.11.56c0,.23.23.36.55.36S11.39,6.81,11.45,6.57ZM13.3,1.14a26.25,26.25,0,0,1,1.07,2.93H12.2A26.76,26.76,0,0,1,13.3,1.14Zm.44,11.43A6.27,6.27,0,0,0,12,15h3.41a.51.51,0,1,1,0,1H11.43a.54.54,0,0,1-.59-.55,3,3,0,0,1,.52-1.51,12.38,12.38,0,0,1,1.65-2,8.85,8.85,0,0,0,1.85-2.4H11.62c-.35,0-.53-.16-.53-.5a.47.47,0,0,1,.53-.52h3.71a.59.59,0,0,1,.67.61,2.46,2.46,0,0,1-.51,1.38A18.61,18.61,0,0,1,13.74,12.57ZM8,10.94l.71.71L4.35,16,0,11.65l.71-.71,3.14,3.15V0h1V14.09Z"/></svg>