<svg id="Layer_1" data-name="Layer 1" xmlns="http://www.w3.org/2000/svg" viewBox="0 0 16 16"><path d="M8.73,5.5a.5.5,0,0,1,0-1,.5.5,0,0,1,0,1ZM3.48,11.41H1.92c-.11.37-.18.65-.26.91s-.12.33-.35.33-.54-.15-.54-.32a7.69,7.69,0,0,1,.4-1.45,22.5,22.5,0,0,1,.94-2.41.55.55,0,0,1,.6-.39h0c.37,0,.49.15.63.46.29.66.62,1.55.87,2.31a8.88,8.88,0,0,1,.41,1.43c0,.28-.31.37-.55.37s-.26-.11-.33-.33Zm-.23-.78c-.12-.38-.4-1.19-.55-1.53-.13.34-.43,1.18-.54,1.53H3.25Zm3-2.26a.48.48,0,0,0-.49-.29c-.36,0-.47.15-.47.5v3.7c0,.29.12.37.42.37s.41-.08.41-.37V9.65h0L6.83,11c.14.29.25.4.5.4s.35-.09.52-.4l.74-1.39h0v2.67c0,.29.09.37.39.37s.43-.08.43-.37V8.58c0-.37-.12-.5-.47-.5a.5.5,0,0,0-.51.34L7.34,10.51Zm5.38,3.48a1.24,1.24,0,0,1-.67-.2.79.79,0,0,0-.36-.12.46.46,0,0,0-.39.47.36.36,0,0,0,.19.32,2.16,2.16,0,0,0,1.2.32c1.08,0,1.54-.61,1.54-1.34s-.54-1.14-1.35-1.4c-.4-.12-.63-.25-.63-.56s.2-.45.58-.45a1.22,1.22,0,0,1,.6.16.75.75,0,0,0,.33.11A.46.46,0,0,0,13,8.69a.4.4,0,0,0-.25-.35,2.37,2.37,0,0,0-1.09-.25,1.31,1.31,0,0,0-1.46,1.3c0,.77.5,1.08,1.25,1.32.46.15.73.28.73.62S12,11.85,11.59,11.85Zm3.63-7.4a.36.36,0,0,0,0-.1l0-.09-.05-.07L15,4.11l0,0-6-4H9L8.92,0a.65.65,0,0,0-.19,0H8.64a.36.36,0,0,0-.18.07h0l-6,4,0,0-.07.08-.05.07a.36.36,0,0,0,0,.09s0,.07,0,.1,0,0,0,0V6h1V4.76L8.73,1.1l5.5,3.66V15h-12v.5a.51.51,0,0,0,.5.5h12a.5.5,0,0,0,.5-.5V4.5S15.22,4.47,15.22,4.45Z"/></svg>