<svg id="Layer_1" data-name="Layer 1" xmlns="http://www.w3.org/2000/svg" viewBox="0 0 16 16"><path d="M4.23,3.26l5.46,2.2a.49.49,0,0,0,.48-.07L14.65,2a.5.5,0,1,0-.6-.8L9.8,4.42,4.27,2.2a.53.53,0,0,0-.58.14L1.85,4.58v-4a.5.5,0,0,0-1,0V11a.5.5,0,0,0,.5.5H3.28a.5.5,0,0,0,.5-.5.51.51,0,0,0-.5-.5H1.85V6.15Z"/><polygon points="8.38 14.02 8.38 8.14 7.38 8.14 7.38 14.02 5.23 11.89 4.52 12.61 7.88 15.91 11.23 12.61 10.52 11.89 8.38 14.02"/><path d="M14.65,10.49H12.21a.51.51,0,0,0-.5.5.5.5,0,0,0,.5.5h2.44a.5.5,0,0,0,.5-.5A.5.5,0,0,0,14.65,10.49Z"/></svg>