<svg id="Layer_1" data-name="Layer 1" xmlns="http://www.w3.org/2000/svg" viewBox="0 0 16 16"><path d="M15.47,8.53l-3.36-2V2.66a.5.5,0,0,0-.25-.43L8.26.08a.53.53,0,0,0-.52,0L4.14,2.23a.5.5,0,0,0-.25.43V6.53l-3.36,2A.51.51,0,0,0,.29,9v4.3a.5.5,0,0,0,.24.43L4.12,15.9l0,0a.46.46,0,0,0,.23.06.54.54,0,0,0,.28-.08L8,13.66l3.33,2.25a.49.49,0,0,0,.51,0h0l3.63-2.24a.51.51,0,0,0,.24-.43V9A.51.51,0,0,0,15.47,8.53Zm-3.86,2.14L9,9.11l2.74-1.64L14.35,9Zm-7.22,0L1.65,9,4.28,7.47,7,9.11ZM7.5,5.24V8.08L4.89,6.53V3.69Zm3.61,1.29L8.5,8.08V5.21l2.61-1.56ZM8,1.09l2.72,1.63L8,4.36,5.25,2.73ZM1.29,10l2.6,1.55v3L1.29,13Zm3.6,1.55L7.5,10V12.8L4.89,14.55ZM8.5,12.8V10l2.61,1.55v3Zm3.61,1.79V11.54L14.71,10v3Z"/></svg>