<svg id="Layer_1" data-name="Layer 1" xmlns="http://www.w3.org/2000/svg" viewBox="0 0 16 16"><path d="M15.47,3.79a1.81,1.81,0,0,1-.53,1.4L6.6,13.53a3.15,3.15,0,0,1-2.25.91,3.71,3.71,0,0,1-2.62-1.11l-.14-.14a3.59,3.59,0,0,1-.22-4.87L6.74,3a.5.5,0,0,1,.7,0,.5.5,0,0,1,0,.71L2.09,9a2.6,2.6,0,0,0,.23,3.5l.12.11a2.45,2.45,0,0,0,3.45.2l8.35-8.34a.84.84,0,0,0,.23-.64,1.07,1.07,0,0,0-.34-.74l-.19-.2a1.05,1.05,0,0,0-1.41-.1L4.47,10.94a.49.49,0,0,1-.7,0,.5.5,0,0,1,0-.71L11.82,2.1a1.85,1.85,0,0,1,1.32-.54h0a2.16,2.16,0,0,1,1.51.64l.19.19A2.16,2.16,0,0,1,15.47,3.79Z"/></svg>