<svg id="Layer_1" data-name="Layer 1" xmlns="http://www.w3.org/2000/svg" viewBox="0 0 16 16"><path d="M4.83,7.05a2.5,2.5,0,1,0-2.29,3.51,2.58,2.58,0,0,0,1-.21A2.52,2.52,0,0,0,4.83,7.05ZM1.17,8.67a1.5,1.5,0,0,1,.77-2,1.41,1.41,0,0,1,.6-.13A1.5,1.5,0,1,1,1.17,8.67ZM5.3,5.3a2.58,2.58,0,0,0,1-.21,2.51,2.51,0,1,0-1,.21ZM4.69,1.43a1.5,1.5,0,1,1-.76,2A1.5,1.5,0,0,1,4.69,1.43Zm-.4,9.48a2.5,2.5,0,0,0,1,4.79,2.42,2.42,0,0,0,1-.22,2.5,2.5,0,1,0-2-4.57ZM5.9,14.57a1.5,1.5,0,1,1,.77-2A1.5,1.5,0,0,1,5.9,14.57Zm8.57-8.8a2.5,2.5,0,1,0-2,4.58,2.56,2.56,0,0,0,1,.21,2.5,2.5,0,0,0,1-4.79Zm.36,2.9a1.5,1.5,0,1,1-1.37-2.11,1.41,1.41,0,0,1,.6.13A1.5,1.5,0,0,1,14.83,8.67ZM9.9,5.15a2.65,2.65,0,0,0,.87.15,2.43,2.43,0,0,0,1.05-.23,2.49,2.49,0,0,0,1.3-1.4A2.5,2.5,0,1,0,9.9,5.15ZM9.36,2.28a1.53,1.53,0,0,1,.78-.84,1.56,1.56,0,0,1,.63-.14,1.34,1.34,0,0,1,.52.1,1.41,1.41,0,0,1,.84.78,1.46,1.46,0,0,1,0,1.14,1.5,1.5,0,0,1-2.82-1Zm2.42,8.63a2.48,2.48,0,0,0-1.91,0,2.45,2.45,0,0,0-1.38,1.32,2.5,2.5,0,0,0,1.27,3.3,2.58,2.58,0,0,0,1,.21,2.5,2.5,0,0,0,1-4.79Zm.36,2.89A1.5,1.5,0,1,1,9.4,12.59a1.5,1.5,0,0,1,1.37-.89,1.62,1.62,0,0,1,.61.12A1.51,1.51,0,0,1,12.14,13.8ZM10.29,7.05a2.5,2.5,0,1,0-4.58,2h0A2.5,2.5,0,0,0,8,10.56a2.58,2.58,0,0,0,1-.21A2.52,2.52,0,0,0,10.29,7.05ZM6.63,8.67a1.5,1.5,0,1,1,2,.76A1.5,1.5,0,0,1,6.63,8.67Z" fill="#231f20"/></svg>