<svg id="Layer_1" data-name="Layer 1" xmlns="http://www.w3.org/2000/svg" viewBox="0 0 16 16"><path d="M14.75,3.82,8.25.07a.5.5,0,0,0-.5,0L1.25,3.82A.5.5,0,0,0,1,4.25v7.5a.5.5,0,0,0,.25.43l6.5,3.75a.48.48,0,0,0,.5,0l6.5-3.75a.5.5,0,0,0,.25-.43V4.25A.5.5,0,0,0,14.75,3.82ZM14,11.46,8,14.92,2,11.46V4.54L8,1.08l6,3.46ZM7.13,5A1.23,1.23,0,0,1,8.06,7l.71,1A1.2,1.2,0,0,1,9.1,8a1.28,1.28,0,0,1,.48.09L10.8,6.71a1.18,1.18,0,0,1-.11-.5,1.25,1.25,0,1,1,1.25,1.25,1.35,1.35,0,0,1-.4-.08L10.27,8.82a1.25,1.25,0,1,1-2.42.43A1.28,1.28,0,0,1,8,8.7L7.14,7.45h0a1.28,1.28,0,0,1-.34-.07L5.45,8.77a1.28,1.28,0,0,1,.09.48A1.25,1.25,0,1,1,4.29,8a1.18,1.18,0,0,1,.43.08L6,6.75a1.09,1.09,0,0,1-.14-.54A1.25,1.25,0,0,1,7.13,5Z"/></svg>