<svg id="Layer_1" data-name="Layer 1" xmlns="http://www.w3.org/2000/svg" viewBox="0 0 16 16"><path d="M15,10h1v5a.5.5,0,0,1-.5.5H.5A.5.5,0,0,1,0,15V10H1v4.5H15Zm1-6.28v4a.5.5,0,0,1-.25.43A15.69,15.69,0,0,1,10,10v.62a.5.5,0,0,1-.5.5h-3a.5.5,0,0,1-.5-.5V10A16,16,0,0,1,.25,8.12.5.5,0,0,1,0,7.69v-4a.5.5,0,0,1,.5-.5H3.84L5.41.73A.5.5,0,0,1,5.83.5h4.35a.5.5,0,0,1,.43.24l1.5,2.48H15.5A.5.5,0,0,1,16,3.72ZM5,3.22h5.91L9.9,1.5H6.11Zm4,6H7v1H9Zm6-5H1V7.39A14.89,14.89,0,0,0,6,9V8.69a.5.5,0,0,1,.5-.5h3a.5.5,0,0,1,.5.5V9a14.68,14.68,0,0,0,5-1.64Z"/></svg>