<svg id="Layer_1" data-name="Layer 1" xmlns="http://www.w3.org/2000/svg" viewBox="0 0 16 16"><path d="M13.45,9.31a4.21,4.21,0,1,0-1.61,3.27L15.26,16l.71-.71-3.42-3.42A4.11,4.11,0,0,0,13.45,9.31ZM9.28,12.48a3.17,3.17,0,1,1,3.17-3.17A3.17,3.17,0,0,1,9.28,12.48Zm5.72-3h1v2.73H15ZM1,14h9v1H.5a.5.5,0,0,1-.5-.5v-5H1ZM15.5,2.74H12.11L10.61.26A.5.5,0,0,0,10.18,0H5.83a.49.49,0,0,0-.42.24L3.84,2.74H.5a.5.5,0,0,0-.5.5v4a.52.52,0,0,0,.25.44A16,16,0,0,0,3.1,8.9l.32-1A14,14,0,0,1,1,6.91V3.74H15V7.21h1v-4A.5.5,0,0,0,15.5,2.74ZM6.11,1H9.9l1,1.72H5Z"/></svg>