<svg id="Layer_1" data-name="Layer 1" xmlns="http://www.w3.org/2000/svg" viewBox="0 0 16 16"><path d="M.07,0H3.8V16H.07V15H2.8V8.73H.07v-1H2.8V1H.07ZM15.93,7.91a5.75,5.75,0,1,1-5.75-5.75A5.76,5.76,0,0,1,15.93,7.91Zm-1,0a4.75,4.75,0,1,0-4.75,4.75A4.76,4.76,0,0,0,14.93,7.91ZM10.18,5A1.78,1.78,0,0,0,8.4,6.73h1a.78.78,0,1,1,1.12.69,1.47,1.47,0,0,0-.84,1.3V9h1V8.72A.48.48,0,0,1,11,8.31a1.76,1.76,0,0,0,1-1.58A1.78,1.78,0,0,0,10.18,5Zm0,4.79a.5.5,0,0,0-.5.5.5.5,0,0,0,.5.5.5.5,0,0,0,.5-.5A.51.51,0,0,0,10.13,9.74Z"/></svg>