<svg id="Layer_1" data-name="Layer 1" xmlns="http://www.w3.org/2000/svg" viewBox="0 0 16 16"><path d="M14.37,8.15a.5.5,0,0,0-.71,0L8.87,12.94a.62.62,0,0,0-.12.19L8,15.34a.48.48,0,0,0,.12.51.47.47,0,0,0,.35.15.45.45,0,0,0,.16,0l2.21-.73a.62.62,0,0,0,.19-.12l4.79-4.79A.49.49,0,0,0,16,10a.47.47,0,0,0-.15-.35Zm-3.94,6.18-1.15.38.39-1.15L12.25,11l.77.77ZM13.72,11,13,10.27,14,9.21l.76.76ZM1,14H5.34v1H.5a.5.5,0,0,1-.5-.5v-5H1ZM15.5,2.76H12.11L10.61.29A.5.5,0,0,0,10.18,0H5.83a.49.49,0,0,0-.42.24L3.84,2.76H.5a.5.5,0,0,0-.5.5v4a.52.52,0,0,0,.25.44A16,16,0,0,0,6,9.56v.64a.5.5,0,0,0,.5.5h3a.5.5,0,0,0,.5-.5v-2a.5.5,0,0,0-.5-.5h-3a.5.5,0,0,0-.5.5v.32A15.1,15.1,0,0,1,1,6.94V3.76H15V6.44h1V3.26A.5.5,0,0,0,15.5,2.76ZM7,8.73H9v1H7Zm-2-6L6.11,1H9.9l1,1.72Z"/></svg>