<svg id="Layer_1" data-name="Layer 1" xmlns="http://www.w3.org/2000/svg" viewBox="0 0 16 16"><path d="M0,15H16v1H0Zm1.44-2.44a1.45,1.45,0,0,0,1.44-1.44,1.47,1.47,0,0,0-.2-.72L4.75,7.79a1.27,1.27,0,0,0,.44.08,1.44,1.44,0,0,0,1-.39L9.39,9.09c0,.05,0,.1,0,.16A1.44,1.44,0,1,0,12,8.51l2.07-2.6a1.34,1.34,0,0,0,.46.09,1.44,1.44,0,1,0-1.44-1.44,1.37,1.37,0,0,0,.2.72L11.26,7.89a1.32,1.32,0,0,0-.44-.08,1.44,1.44,0,0,0-1,.39L6.61,6.59a.88.88,0,0,0,0-.16,1.44,1.44,0,0,0-2.88,0A1.39,1.39,0,0,0,4,7.17L1.9,9.77a1.39,1.39,0,0,0-.46-.09,1.44,1.44,0,0,0,0,2.88Z"/></svg>