<svg id="Layer_1" data-name="Layer 1" xmlns="http://www.w3.org/2000/svg" viewBox="0 0 16 16"><path d="M15.2,7.43,12.77,6V3.05a.5.5,0,0,0-.24-.43L8.26.07a.53.53,0,0,0-.52,0L3.47,2.62a.5.5,0,0,0-.24.43V6L.8,7.43a.5.5,0,0,0-.25.43V13a.5.5,0,0,0,.25.43l4.27,2.55a.48.48,0,0,0,.26.07.43.43,0,0,0,.25-.07L8,14.49l2.42,1.44a.43.43,0,0,0,.25.07.48.48,0,0,0,.26-.07l4.27-2.55a.5.5,0,0,0,.25-.43V7.86A.5.5,0,0,0,15.2,7.43Zm-11-4.1L8,1.08l3.77,2.25V5.38l-.84-.5a.47.47,0,0,0-.51,0L8,6.32,5.58,4.88a.47.47,0,0,0-.51,0l-.84.5ZM6.9,10.62l.84.5a.52.52,0,0,0,.52,0l.84-.5v2.05L8,13.33l-1.1-.66ZM8,10.11,6.9,9.45V8.14L8,7.48l1.1.66V9.45ZM4.23,6.55l1.1-.66L7,6.9l-.88.53a.5.5,0,0,0-.24.43v1l-1.67-1Zm5.63.88L9,6.9l1.69-1,1.1.66V7.86l-1.67,1v-1A.5.5,0,0,0,9.86,7.43ZM5.33,14.92,1.55,12.67V8.14l1.68-1v1a.5.5,0,0,0,.24.43L5.9,10V13a.5.5,0,0,0,.24.43l.88.53Zm9.12-2.25-3.78,2.25L9,13.91l.88-.53A.5.5,0,0,0,10.1,13V10l2.43-1.45a.5.5,0,0,0,.24-.43v-1l1.68,1Z"/></svg>