<svg id="Layer_1" data-name="Layer 1" xmlns="http://www.w3.org/2000/svg" viewBox="0 0 16 16"><path d="M7.14,8.33l1,.46.4-.92-1-.45a3.86,3.86,0,0,0,.1-.49,4.17,4.17,0,0,0,0-.5l1.1-.22-.21-1-1.09.23a3.12,3.12,0,0,0-.4-.74l.81-.78-.7-.72L6.36,4a3,3,0,0,0-1.11-.53l.12-1.12-1-.1L4.26,3.36a3.2,3.2,0,0,0-1.19.29l-.62-.93-.83.55.62.94a3,3,0,0,0-.54.64l-1-.45-.4.91,1,.45a3.86,3.86,0,0,0-.1.49,2.67,2.67,0,0,0,0,.49L.09,7,.3,8l1.09-.23a2.94,2.94,0,0,0,.4.74L1,9.25l.7.71.8-.78a3.17,3.17,0,0,0,1.11.53l-.12,1.12,1,.1.12-1.11a3.2,3.2,0,0,0,1.18-.29l.63.93.83-.56L6.6,9A3.06,3.06,0,0,0,7.14,8.33ZM2.67,8A2.25,2.25,0,0,1,4.42,4.35h.24A2.24,2.24,0,1,1,2.67,8ZM15.09,3.35A2.71,2.71,0,0,0,15,2.84l.7-.41-.5-.87-.7.41a2.92,2.92,0,0,0-.65-.56L14.1.66,13.16.31l-.28.75a2.69,2.69,0,0,0-.85,0L11.76.3l-.94.33.27.77a2.74,2.74,0,0,0-.43.3L10,1.2,9.4,2l.64.5c0,.1-.1.19-.14.29a2.14,2.14,0,0,0-.08.32L9,3.06l0,1,.81,0a2.39,2.39,0,0,0,.13.51L9.19,5l.5.86.7-.4A2.64,2.64,0,0,0,11,6l-.28.76.94.35L12,6.38a2.28,2.28,0,0,0,.45,0,2.71,2.71,0,0,0,.4,0l.27.77L14,6.81l-.27-.76a2.24,2.24,0,0,0,.43-.31l.65.5.61-.78L14.82,5c0-.1.1-.2.14-.3A1.67,1.67,0,0,0,15,4.34l.82,0,.05-1Zm-3.25,2a1.7,1.7,0,0,1-.95-.89,1.68,1.68,0,0,1-.05-1.3,1.71,1.71,0,0,1,.88-.95A1.63,1.63,0,0,1,12.43,2a1.71,1.71,0,0,1,.59.11A1.65,1.65,0,0,1,14,3a1.71,1.71,0,0,1-.83,2.26A1.72,1.72,0,0,1,11.84,5.32Zm3,6.41,1-.13-.13-1-1,.13a4,4,0,0,0-.3-.67l.78-.66-.65-.76-.78.66a2.92,2.92,0,0,0-1-.55l.17-1-1-.18-.18,1a3.33,3.33,0,0,0-1.09.19l-.5-.88-.87.49.5.89a3.2,3.2,0,0,0-.51.53l-.9-.47L8,10.21l.91.48a1.86,1.86,0,0,0-.12.42,3.27,3.27,0,0,0,0,.44l-1,.14.14,1,1-.14a2.69,2.69,0,0,0,.3.67l-.78.67.65.76L9.8,14a2.92,2.92,0,0,0,.95.55l-.17,1,1,.17.18-1h0a3,3,0,0,0,1-.19l.51.88.87-.5L13.69,14a3.25,3.25,0,0,0,.52-.53l.9.47.46-.89-.9-.47a3.31,3.31,0,0,0,.12-.42A2.27,2.27,0,0,0,14.82,11.73Zm-5.09-.45a2.08,2.08,0,0,1,2-1.71,1.47,1.47,0,0,1,.36,0,2,2,0,0,1,1.33.85A2.06,2.06,0,0,1,13.81,12,2.08,2.08,0,0,1,13,13.34a2.13,2.13,0,0,1-1.55.34A2.08,2.08,0,0,1,9.73,11.28Z"/></svg>