<svg id="Layer_1" data-name="Layer 1" xmlns="http://www.w3.org/2000/svg" viewBox="0 0 16 16"><path d="M16,1H0V12H6c0,1.77-.79,3-1.5,3h-1v1h9V15h-1c-.71,0-1.5-1.23-1.5-3h6ZM9.84,15H6.15A5.22,5.22,0,0,0,7,12H9A5.3,5.3,0,0,0,9.84,15ZM15,11H1V2H15ZM9.21,6.48a1.45,1.45,0,0,0,1.37-1H12v-1H10.58a1.45,1.45,0,0,0-2.74,0H4v1H7.84A1.45,1.45,0,0,0,9.21,6.48Zm0-1.93A.47.47,0,1,1,8.74,5,.47.47,0,0,1,9.21,4.55ZM6.79,9.45a1.45,1.45,0,0,0,1.37-1H12v-1H8.16a1.46,1.46,0,0,0-2.74,0H4v1H5.42A1.45,1.45,0,0,0,6.79,9.45Zm0-1.93A.47.47,0,1,1,6.32,8,.47.47,0,0,1,6.79,7.52Z"/></svg>