<svg id="Layer_1" data-name="Layer 1" xmlns="http://www.w3.org/2000/svg" viewBox="0 0 16 16"><path d="M5.05,11.76c-.22,0-.31-.12-.37-.35-.12-.52-.29-1.09-.45-1.62H1.53c-.2.65-.35,1.15-.48,1.62-.06.24-.15.35-.37.35s-.55-.13-.55-.36a2.09,2.09,0,0,1,.11-.56c.14-.54.32-1.08.53-1.73A27.51,27.51,0,0,1,2.38,5.17a.5.5,0,0,1,.54-.33h0c.29,0,.39.12.52.37A27.07,27.07,0,0,1,5,9.09c.21.67.4,1.27.53,1.82a2.14,2.14,0,0,1,.09.46C5.6,11.66,5.31,11.76,5.05,11.76ZM2.9,6A26.76,26.76,0,0,0,1.8,8.91H4A26.25,26.25,0,0,0,2.9,6ZM6,0V16h5.21V0ZM8.85,11.8A1.48,1.48,0,0,1,7.45,11v.34c0,.29-.21.38-.47.38s-.44-.09-.44-.4V4.6c0-.3.16-.4.44-.4s.47.1.47.4V7.25A1.55,1.55,0,0,1,8.82,6.5c1.36,0,2.12,1,2.12,2.62S10.11,11.8,8.85,11.8ZM8.69,7.34A1.26,1.26,0,0,0,7.45,8.75v.8A1.27,1.27,0,0,0,8.69,11C9.53,11,10,10.25,10,9.12S9.59,7.34,8.69,7.34Zm7.17.07a.47.47,0,0,1-.43.45.54.54,0,0,1-.36-.17,1.64,1.64,0,0,0-1-.35c-.81,0-1.42.61-1.42,1.8S13.25,11,14.06,11a1.64,1.64,0,0,0,1-.37.57.57,0,0,1,.35-.15.46.46,0,0,1,.44.43.63.63,0,0,1-.27.43,2.45,2.45,0,0,1-1.56.5,2.37,2.37,0,0,1-2.31-2.66A2.36,2.36,0,0,1,14.1,6.5a2.18,2.18,0,0,1,1.61.59A.43.43,0,0,1,15.86,7.41Z"/></svg>