<svg id="Layer_1" data-name="Layer 1" xmlns="http://www.w3.org/2000/svg" viewBox="0 0 16 16"><path d="M5.35,11.16,2.63,14l-.72-.7,3-3.08a.51.51,0,0,1,.56-.11l3.62,1.61,4.18-4.52.76.64L9.57,12.64a.49.49,0,0,1-.58.14Zm5.15-4.5A2.2,2.2,0,0,1,8.41,8.91v.54c0,.3-.1.44-.41.44s-.4-.11-.4-.43V8.92a3.39,3.39,0,0,1-1.83-.73.65.65,0,0,1-.27-.45A.53.53,0,0,1,6,7.23a.67.67,0,0,1,.42.18A2.88,2.88,0,0,0,7.59,8V5.28C6.53,5,5.53,4.51,5.53,3.12A2.19,2.19,0,0,1,7.53,1V.44c0-.29.12-.44.41-.44s.4.15.4.43V.89a3.18,3.18,0,0,1,1.52.55.84.84,0,0,1,.39.58.59.59,0,0,1-.48.55c-.19,0-.25-.07-.45-.24a1.73,1.73,0,0,0-1-.45V4.39C9.48,4.75,10.43,5.29,10.5,6.66Zm-3-4.78A1.1,1.1,0,0,0,6.51,3c0,.65.45.91,1,1.1ZM9.4,6.7c0-.68-.49-1-1.05-1.16V8A1.17,1.17,0,0,0,9.4,6.7ZM16,15H0v1H16Z"/></svg>