<svg id="Layer_1" data-name="Layer 1" xmlns="http://www.w3.org/2000/svg" viewBox="0 0 16 16"><path d="M16,12v1H13v3H12V13H9V12h3V9h1v3ZM1.17,4.61l6-3.47,6,3.47V7.19h1V4.33A.52.52,0,0,0,14,3.89L7.44.13a.5.5,0,0,0-.5,0L.42,3.89a.5.5,0,0,0-.25.44v7.52a.5.5,0,0,0,.25.44l4.85,2.8.5-.87-4.6-2.65Zm6-.15A2.18,2.18,0,0,0,5.08,6.69h1A1.18,1.18,0,0,1,7.19,5.46a1.18,1.18,0,0,1,1.1,1.23A1.25,1.25,0,0,1,7.66,7.8a1.81,1.81,0,0,0-1,1.59v.32h1V9.39a.78.78,0,0,1,.45-.71,2.25,2.25,0,0,0,1.15-2A2.17,2.17,0,0,0,7.19,4.46Zm0,6a.5.5,0,0,0-.5.5.5.5,0,0,0,.5.5.5.5,0,0,0,.5-.5A.51.51,0,0,0,7.19,10.5Z"/></svg>