<svg id="Layer_1" data-name="Layer 1" xmlns="http://www.w3.org/2000/svg" viewBox="0 0 16 16"><path d="M16,13H13v3H12V13H9V12h3V9h1v3h3ZM10.09,6.47,2.42,15.82a.5.5,0,0,1-.62.12.49.49,0,0,1-.25-.57l1.78-6.5H1.46a.51.51,0,0,1-.4-.19A.54.54,0,0,1,1,8.25L2.88.38A.49.49,0,0,1,3.36,0H9.13a.5.5,0,0,1,.42.23.48.48,0,0,1,0,.48l-2.27,5H9.71a.5.5,0,0,1,.45.28A.49.49,0,0,1,10.09,6.47Zm-1.44.19H6.54a.5.5,0,0,1-.42-.23.49.49,0,0,1,0-.48L8.35,1H3.76L2.09,7.87H4a.49.49,0,0,1,.39.19.5.5,0,0,1,.09.44L3.13,13.37Z"/></svg>