<svg id="Layer_1" data-name="Layer 1" xmlns="http://www.w3.org/2000/svg" viewBox="0 0 16 16"><path d="M15.94,12v1h-3v3h-1V13h-3V12h3V9h1v3ZM3.35,9.31a2.91,2.91,0,0,1,2.35,4,4.44,4.44,0,0,0,2.15.55v1a5.46,5.46,0,0,1-2.69-.71,2.39,2.39,0,0,1-.22.23A2.93,2.93,0,0,1,1.06,10a2.82,2.82,0,0,1,1.29-.65A5.5,5.5,0,0,1,5.13,4.62a2.87,2.87,0,0,1-.22-1.09,2.94,2.94,0,1,1,5.87,0,2.88,2.88,0,0,1-.22,1.1A5.5,5.5,0,0,1,12.81,7l-.9.43a4.51,4.51,0,0,0-1.88-2,2.9,2.9,0,0,1-4.36,0A4.49,4.49,0,0,0,3.35,9.31ZM5.91,3.53A1.94,1.94,0,1,0,7.85,1.59,1.94,1.94,0,0,0,5.91,3.53ZM3,10.28a1.94,1.94,0,0,0,0,3.87,2,2,0,0,0,1.28-.49,1.94,1.94,0,0,0,.17-2.73A2,2,0,0,0,3,10.28Z"/></svg>