<svg id="Layer_1" data-name="Layer 1" xmlns="http://www.w3.org/2000/svg" viewBox="0 0 16 16"><path d="M8,1.25A7.8,7.8,0,0,0,2.41,14.44a1,1,0,0,0,.74.31h9.7a1,1,0,0,0,.74-.31A7.8,7.8,0,0,0,8,1.25Zm4.86,12.5H3.14a6.75,6.75,0,1,1,9.72,0Z"/><path d="M9.71,5.38l.35-.94a5.19,5.19,0,0,0-7,4.9h1a4.18,4.18,0,0,1,5.63-4Z"/><path d="M11.57,5.9l-3,3.29a1.53,1.53,0,0,0-.64-.13,1.62,1.62,0,0,0,0,3.23,1.63,1.63,0,0,0,1.62-1.62,1.66,1.66,0,0,0-.23-.82l3-3.27a.51.51,0,0,0,0-.71A.5.5,0,0,0,11.57,5.9ZM7.93,11.29a.61.61,0,0,1-.61-.62.61.61,0,0,1,.61-.61.61.61,0,0,1,.62.61A.62.62,0,0,1,7.93,11.29Z"/></svg>