<svg id="Layer_1" data-name="Layer 1" xmlns="http://www.w3.org/2000/svg" viewBox="0 0 16 16"><path d="M7.13,4.09c3.78,0,6.84-.91,6.84-2S10.91,0,7.13,0,.3.92.3,2.05,3.36,4.09,7.13,4.09ZM7.13,1c3.14,0,5.11.62,5.71,1-.6.42-2.57,1-5.71,1s-5.1-.62-5.7-1C2,1.62,4,1,7.13,1ZM1.05,13.16a16.74,16.74,0,0,0,5.3,1.34l-.08,1A17.06,17.06,0,0,1,.32,13.92a.51.51,0,0,1-.27-.44v-2h1Zm0-5.5v1.7a16.57,16.57,0,0,0,4.54,1.27l-.13,1a16.62,16.62,0,0,1-5.14-1.5.48.48,0,0,1-.27-.44v-2ZM14.13,5.28h-1V3.82h1ZM1.05,5.57A16.71,16.71,0,0,0,6.73,6.93l-.05,1A16.93,16.93,0,0,1,.32,6.33a.5.5,0,0,1-.27-.45v-2h1ZM9.6,12.41l-.71.7L6.81,11,8.89,8.94l.71.7L8.22,11ZM16,11,13.87,13.1l-.7-.71L14.54,11,13.17,9.62l.7-.7ZM12.1,7.54l.94.34L10.52,14.8l-.94-.35Z" fill="#272223"/></svg>