<svg id="Layer_1" data-name="Layer 1" xmlns="http://www.w3.org/2000/svg" viewBox="0 0 16 16"><path d="M8,0a8,8,0,1,0,8,8A8,8,0,0,0,8,0ZM8,15a7,7,0,1,1,7-7A7,7,0,0,1,8,15ZM7.53,2a4.12,4.12,0,0,0-2,7.3,1.35,1.35,0,0,1,.51,1V13.2a.8.8,0,0,0,.8.8H9.14a.8.8,0,0,0,.8-.8V10.37a1.37,1.37,0,0,1,.54-1.06A4.16,4.16,0,0,0,10.62,3,3.9,3.9,0,0,0,7.53,2ZM7.06,13V11.57H8.94V13ZM9.85,8.53a2.37,2.37,0,0,0-.91,1.84v.2H7.06v-.2a2.29,2.29,0,0,0-.89-1.82A3.13,3.13,0,0,1,5,5.65,3.08,3.08,0,0,1,7.64,3,2.93,2.93,0,0,1,10,3.75a3.16,3.16,0,0,1-.11,4.78Z"/></svg>