<svg id="Layer_1" data-name="Layer 1" xmlns="http://www.w3.org/2000/svg" viewBox="0 0 16 16"><path d="M13.94,11v1h-5V11Zm2,.5A4.5,4.5,0,1,1,11.41,7,4.5,4.5,0,0,1,15.91,11.5Zm-1,0a3.5,3.5,0,1,0-3.5,3.5A3.5,3.5,0,0,0,14.91,11.5ZM5.72,13.35c.13.07.25.15.38.21l-.39.92c-.19-.08-.37-.17-.54-.26-.07.07-.13.15-.21.22A2.93,2.93,0,0,1,1.08,10a2.82,2.82,0,0,1,1.29-.65A5.52,5.52,0,0,1,5.15,4.65a2.87,2.87,0,0,1-.21-1.1,2.93,2.93,0,0,1,5.86,0,3.09,3.09,0,0,1-.21,1.11,6,6,0,0,1,1,.72l-.68.74a4.44,4.44,0,0,0-.87-.62,2.9,2.9,0,0,1-4.36,0A4.47,4.47,0,0,0,3.38,9.34a2.9,2.9,0,0,1,2.34,4Zm.22-9.8A1.93,1.93,0,1,0,7.87,1.62,1.93,1.93,0,0,0,5.94,3.55ZM4.47,11a1.93,1.93,0,1,0-2.9,2.56A2,2,0,0,0,3,14.17,1.93,1.93,0,0,0,4.47,11Z"/></svg>