<svg id="Layer_1" data-name="Layer 1" xmlns="http://www.w3.org/2000/svg" viewBox="0 0 16 16"><path d="M5.63,2.29A3.11,3.11,0,0,1,8.17,3.65a.51.51,0,0,0,.66.15,1.85,1.85,0,0,1,.92-.25,2,2,0,0,1,2,2.16v.1a.5.5,0,0,0,.63.53,2,2,0,0,1,2.42,1.15,4.22,4.22,0,0,1,1-.07,3.13,3.13,0,0,0-3.09-2.15,3,3,0,0,0-3-2.72,2.7,2.7,0,0,0-1,.19A4.12,4.12,0,0,0,5.63,1.29,4.2,4.2,0,0,0,1.5,5.54v.2A3.27,3.27,0,0,0,0,8.49a3.18,3.18,0,0,0,3.14,3.22H5.87v-1H3.14A2.19,2.19,0,0,1,1,8.49a2.25,2.25,0,0,1,1.25-2A.51.51,0,0,0,2.53,6a2.86,2.86,0,0,1,0-.42A3.19,3.19,0,0,1,5.63,2.29Z"/><path d="M16,12.59v-1H15a3.17,3.17,0,0,0-.62-1.47l.74-.58-.61-.79-.87.68A3,3,0,0,0,12.5,9V8h-1V9a3,3,0,0,0-1.27.52l-.6-.69-.75.66.64.74A3,3,0,0,0,9,11.59H8v1H9a3,3,0,0,0,.57,1.25l-.66.66.71.71.67-.67a3.05,3.05,0,0,0,1.33.49v1h1V15a3.14,3.14,0,0,0,1.18-.52l.71.72.71-.71-.72-.71a3,3,0,0,0,.53-1.2Zm-4,1.48A2.07,2.07,0,1,1,14.08,12,2.07,2.07,0,0,1,12,14.07Z"/></svg>