<svg id="Layer_1" data-name="Layer 1" xmlns="http://www.w3.org/2000/svg" viewBox="0 0 16 16"><path d="M15.88.14h-.51C11.9.14,9.42.69,7.61,2L4,1.89.12,5.76,2,7.63a2.11,2.11,0,0,0,1.49.62,2.17,2.17,0,0,0,1.21-.39,6.73,6.73,0,0,1,1.7.84L5,10.14a.49.49,0,0,0,0,.7.49.49,0,0,0,.35.15.44.44,0,0,0,.35-.16L7.12,9.39a6,6,0,0,1,1,1.88A2.1,2.1,0,0,0,8.34,14l1.87,1.87L14.09,12,14,8.48c1.3-1.82,1.85-4.32,1.85-7.84ZM4.24,6.94a1.1,1.1,0,0,1-1.54,0L1.54,5.76,4.4,2.9l2.07,0A10.35,10.35,0,0,0,4.24,6.94Zm6,7.5L9.05,13.28A1.1,1.1,0,0,1,9,11.81,10.55,10.55,0,0,0,13.05,9.6l0,2ZM9,10.75a6.58,6.58,0,0,0-1.2-2.08L9,7.5a.5.5,0,0,0,0-.7.5.5,0,0,0-.71,0L7.09,8A6.94,6.94,0,0,0,5.27,7c1.46-4.19,4.05-5.77,9.61-5.85C14.79,6.7,13.21,9.29,9,10.75Zm2.09-4.28A1.64,1.64,0,0,0,12.28,6a1.64,1.64,0,0,0,0-2.34,1.63,1.63,0,0,0-1.17-.48h0a1.65,1.65,0,1,0,0,3.3Zm-.46-2.11a.62.62,0,0,1,.46-.19.65.65,0,0,1,.66.65.66.66,0,0,1-.19.46.65.65,0,0,1-.93-.92ZM1,11.73c-1,1-.89,3.39-.87,3.65l0,.43.43,0a5.36,5.36,0,0,0,.56,0A4.69,4.69,0,0,0,4.26,15a2.3,2.3,0,0,0,0-3.24A2.35,2.35,0,0,0,1,11.73Zm2.54,2.54a4,4,0,0,1-2.41.59h0a4,4,0,0,1,.6-2.42,1.32,1.32,0,0,1,1.83,0,1.3,1.3,0,0,1,.38.91A1.32,1.32,0,0,1,3.55,14.27Z"/></svg>