<svg id="Layer_1" data-name="Layer 1" xmlns="http://www.w3.org/2000/svg" viewBox="0 0 16 16"><path d="M16,3.5a.58.58,0,0,0-.11-.31h0l0,0a.21.21,0,0,1,0-.06L13.71.4A1,1,0,0,0,13,0C11.72,0,6.22,0,3.05,0a1,1,0,0,0-.78.38L.17,3.1a.1.1,0,0,1,0,0l0,0h0A.58.58,0,0,0,0,3.5V9.42s0,0,0,0v5.89a.56.56,0,0,0,.56.55H15.44a.56.56,0,0,0,.56-.55V9.46s0,0,0,0V3.5ZM1,8.9V4H15v5ZM3.06,1C8.52,1,12,1,12.93,1L14.44,3H1.57ZM1,14.9V10H15v5Z"/><path d="M13.27,5.92H6.17a.5.5,0,0,0,0,1h7.1a.5.5,0,0,0,0-1Z"/><path d="M3.4,5.92H2.75a.5.5,0,0,0,0,1H3.4a.5.5,0,1,0,0-1Z"/><path d="M13.27,11.88H6.17a.5.5,0,0,0-.5.5.5.5,0,0,0,.5.5h7.1a.51.51,0,0,0,.5-.5A.5.5,0,0,0,13.27,11.88Z"/><path d="M3.4,11.88H2.75a.5.5,0,0,0-.5.5.5.5,0,0,0,.5.5H3.4a.5.5,0,0,0,.5-.5A.5.5,0,0,0,3.4,11.88Z"/></svg>