<svg id="Layer_1" data-name="Layer 1" xmlns="http://www.w3.org/2000/svg" viewBox="0 0 16 16"><path d="M16,15v1H0V0H1V14.35L3.55,12a.48.48,0,0,1,.7,0,.49.49,0,0,1,0,.7L1.77,15ZM12.44,4.06a.49.49,0,0,0,.35-.15l3-3a.48.48,0,0,0,0-.7.5.5,0,0,0-.71,0l-3,3a.5.5,0,0,0,0,.7A.51.51,0,0,0,12.44,4.06ZM4.25,10V6a.5.5,0,0,1,.25-.43l3.5-2a.55.55,0,0,1,.5,0l3.5,2a.48.48,0,0,1,.25.43v4a.48.48,0,0,1-.25.43l-3.5,2a.55.55,0,0,1-.5,0l-3.5-2A.5.5,0,0,1,4.25,10Zm1-.29,2.49,1.42,0-2.89L5.25,6.85Zm6,0V6.84L8.7,8.25l0,2.91ZM5.76,6,8.2,7.38,10.73,6,8.25,4.56Z"/></svg>