<svg id="Layer_1" data-name="Layer 1" xmlns="http://www.w3.org/2000/svg" viewBox="0 0 16 16"><path d="M11.22,0H1.51V7c0,4.9,0,6.45,0,7l0,2h13V3.29Zm2.29,15h-11V13.5h0c0-1.17,0-4.31,0-6.5V1h7V5h4Zm0-11h-3V1h.29l2.71,2.71ZM9.42,9.84c.06-.26.11-.53.16-.79s.1-.52.14-.8a.18.18,0,0,1,.19-.15h.76a.17.17,0,0,1,.12,0s0,0,0,.09a.41.41,0,0,1,0,.1c-.07.37-.16.75-.26,1.14s-.21.78-.32,1.16-.23.74-.35,1.08-.23.64-.34.89a.2.2,0,0,1-.21.14H8.64a.2.2,0,0,1-.21-.14c-.15-.42-.3-.86-.46-1.33s-.3-1-.43-1.56c-.14.58-.28,1.1-.44,1.56s-.3.91-.46,1.33a.19.19,0,0,1-.21.14H5.76a.22.22,0,0,1-.22-.14c-.1-.25-.22-.55-.34-.89S5,11,4.86,10.62s-.22-.76-.32-1.16-.19-.77-.26-1.14a.58.58,0,0,1,0-.1.12.12,0,0,1,0-.09.16.16,0,0,1,.11,0h.77a.16.16,0,0,1,.12,0,.17.17,0,0,1,.06.11c.05.28.1.54.16.8s.11.53.17.79.14.53.21.81.16.56.26.85c.19-.6.36-1.18.5-1.72s.25-1,.35-1.53a.17.17,0,0,1,.18-.15H7.9a.17.17,0,0,1,.18.15c.1.49.22,1,.37,1.54S8.78,10.9,9,11.5c.09-.29.17-.58.24-.85S9.36,10.11,9.42,9.84Z"/></svg>