<svg id="Layer_1" data-name="Layer 1" xmlns="http://www.w3.org/2000/svg" viewBox="0 0 16 16"><path d="M12.61,0H2.9V7h1V1h7V5h4V15H3.9V14h-1v2h13V3.29ZM14.9,4h-3V1h.3l2.7,2.71ZM3,12.58l-.39-.72c-.14-.25-.32-.53-.54-.85l-.28.44-.23.38-.2.37-.2.37a.36.36,0,0,1-.09.13.21.21,0,0,1-.13,0H.21c-.08,0-.11,0-.11-.09a.36.36,0,0,1,0-.11c.17-.33.36-.67.58-1s.49-.74.81-1.17C1.21,9.89,1,9.5.75,9.17A7.54,7.54,0,0,1,.29,8.3a.3.3,0,0,1,0-.11c0-.06,0-.09.11-.09h.84a.23.23,0,0,1,.13,0l.08.12c.1.19.2.4.32.62s.26.45.43.71c.16-.25.3-.48.41-.69s.23-.42.34-.64L3,8.13a.26.26,0,0,1,.14,0H3.9c.07,0,.1,0,.1.08a.3.3,0,0,1,0,.11c-.14.28-.3.58-.5.9s-.44.67-.73,1.08c.34.48.63.9.86,1.27a9.07,9.07,0,0,1,.53,1,.45.45,0,0,1,0,.13q0,.09-.12.09H3.23a.26.26,0,0,1-.14,0A.62.62,0,0,1,3,12.58ZM6.32,8.25v3.62H8a.13.13,0,0,1,.15.15v.56a.13.13,0,0,1-.15.15H5.41a.13.13,0,0,1-.15-.15V8.25a.13.13,0,0,1,.15-.15h.76A.13.13,0,0,1,6.32,8.25Zm5.27,3.22a.41.41,0,0,0-.18-.35,2,2,0,0,0-.63-.25c-.21,0-.4-.11-.59-.17a1.82,1.82,0,0,1-.5-.26,1,1,0,0,1-.35-.4,1.22,1.22,0,0,1-.14-.61,1.48,1.48,0,0,1,.13-.61,1.3,1.3,0,0,1,.37-.44,1.76,1.76,0,0,1,.59-.26A3,3,0,0,1,11.05,8a2.64,2.64,0,0,1,.83.12,2,2,0,0,1,.59.26.15.15,0,0,1,.06.22l-.31.53a.13.13,0,0,1-.2.05A2,2,0,0,0,11.58,9,1.7,1.7,0,0,0,11,8.9a1,1,0,0,0-.6.13.41.41,0,0,0-.18.35.53.53,0,0,0,0,.19.43.43,0,0,0,.13.14,1.67,1.67,0,0,0,.23.11l.36.1a6,6,0,0,1,.71.23,2,2,0,0,1,.51.28,1.08,1.08,0,0,1,.31.4,1.52,1.52,0,0,1,.1.56,1.25,1.25,0,0,1-.13.59,1.3,1.3,0,0,1-.37.44,1.71,1.71,0,0,1-.59.29,3.07,3.07,0,0,1-.77.09,2.84,2.84,0,0,1-1-.15,2.61,2.61,0,0,1-.65-.33.15.15,0,0,1,0-.22l.32-.53a.13.13,0,0,1,.21,0,1.88,1.88,0,0,0,.52.29,1.93,1.93,0,0,0,.65.11,1.38,1.38,0,0,0,.59-.11A.39.39,0,0,0,11.59,11.47Z"/></svg>