<svg id="Layer_1" data-name="Layer 1" xmlns="http://www.w3.org/2000/svg" viewBox="0 0 16 16"><path d="M12.71,0H3V7H4V1h7V5h4V15H4V14H3v2H16V3.29ZM15,4H12V1h.29L15,3.71ZM3.6,10.33a1.69,1.69,0,0,0,.11-.64,1.85,1.85,0,0,0-.1-.63,1.23,1.23,0,0,0-.35-.5,1.75,1.75,0,0,0-.62-.34,3.28,3.28,0,0,0-1-.12H.35a.14.14,0,0,0-.16.15v4.33a.14.14,0,0,0,.16.15H1.1c.11,0,.16-.05.16-.15V11.31h.43a2.78,2.78,0,0,0,.93-.13,1.58,1.58,0,0,0,.63-.34A1.2,1.2,0,0,0,3.6,10.33Zm-1-.33a.58.58,0,0,1-.15.25.62.62,0,0,1-.26.17,1.22,1.22,0,0,1-.41.06H1.26V8.93h.49A1.22,1.22,0,0,1,2.16,9a.62.62,0,0,1,.26.17.61.61,0,0,1,.15.24,1.54,1.54,0,0,1,0,.3A1.36,1.36,0,0,1,2.57,10Zm4.06,2.73a2.49,2.49,0,0,0,1-.19,2.17,2.17,0,0,0,.7-.52,2,2,0,0,0,.39-.74,2.76,2.76,0,0,0,.13-.86,3.08,3.08,0,0,0-.12-.86,2,2,0,0,0-.39-.74,1.86,1.86,0,0,0-.7-.52,2.47,2.47,0,0,0-1-.2H5a.13.13,0,0,0-.15.15v4.33a.13.13,0,0,0,.15.15ZM5.91,8.91h.65A1.2,1.2,0,0,1,7.13,9a1.1,1.1,0,0,1,.37.34,1.3,1.3,0,0,1,.21.48,2.69,2.69,0,0,1,0,1.13,1.28,1.28,0,0,1-.21.49,1,1,0,0,1-.37.33,1.2,1.2,0,0,1-.57.12H5.91Zm5.25,0v1.15h1.49a.14.14,0,0,1,.16.16v.51a.14.14,0,0,1-.16.16H11.16v1.67a.14.14,0,0,1-.16.15h-.75c-.11,0-.16-.05-.16-.15V8.25c0-.1.05-.15.16-.15h2.68a.13.13,0,0,1,.15.15v.52c0,.11-.05.16-.15.16Z"/></svg>