<svg id="Layer_1" data-name="Layer 1" xmlns="http://www.w3.org/2000/svg" viewBox="0 0 16 16"><path d="M12.71,0H3V7H4V1h7V5h4V15H4V14H3v2H16V3.29ZM15,4H12V1h.29L15,3.71ZM3.11,12.64a2.49,2.49,0,0,1-.93.16,2.34,2.34,0,0,1-1-.17,1.72,1.72,0,0,1-.69-.48,2.05,2.05,0,0,1-.41-.74,3.36,3.36,0,0,1,0-1.85,2.06,2.06,0,0,1,.4-.78,2.09,2.09,0,0,1,.72-.55A2.57,2.57,0,0,1,2.31,8a2.27,2.27,0,0,1,.82.14,2.36,2.36,0,0,1,.65.38.15.15,0,0,1,0,.23l-.37.48s-.07.06-.1.06a.22.22,0,0,1-.12-.06A2.26,2.26,0,0,0,2.79,9a1.18,1.18,0,0,0-.5-.1,1.12,1.12,0,0,0-.5.11,1.07,1.07,0,0,0-.38.32,1.39,1.39,0,0,0-.23.49,2.49,2.49,0,0,0-.08.64,1.64,1.64,0,0,0,.33,1.1,1.05,1.05,0,0,0,.83.38,1.18,1.18,0,0,0,.53-.12,1.8,1.8,0,0,0,.43-.31.13.13,0,0,1,.22,0l.4.44a.14.14,0,0,1,0,.22A2.11,2.11,0,0,1,3.11,12.64Zm4.15-1.17a.41.41,0,0,0-.18-.35,2,2,0,0,0-.64-.25l-.59-.17a2,2,0,0,1-.5-.26,1.15,1.15,0,0,1-.48-1A1.33,1.33,0,0,1,5,8.82a1.2,1.2,0,0,1,.37-.44A1.63,1.63,0,0,1,6,8.12,3.07,3.07,0,0,1,6.72,8a2.73,2.73,0,0,1,.83.12,2.17,2.17,0,0,1,.59.26.15.15,0,0,1,0,.22l-.3.53a.14.14,0,0,1-.21.05A1.65,1.65,0,0,0,7.24,9a1.7,1.7,0,0,0-.57-.09A1,1,0,0,0,6.08,9a.41.41,0,0,0-.18.35.38.38,0,0,0,0,.19.29.29,0,0,0,.13.14,1.67,1.67,0,0,0,.23.11l.35.1a6.84,6.84,0,0,1,.72.23,2.43,2.43,0,0,1,.51.28,1.06,1.06,0,0,1,.3.4,1.33,1.33,0,0,1,.11.56,1.38,1.38,0,0,1-.13.59,1.23,1.23,0,0,1-.38.44,1.66,1.66,0,0,1-.58.29,3.15,3.15,0,0,1-.78.09,2.75,2.75,0,0,1-1-.15,2.89,2.89,0,0,1-.66-.33c-.08-.05-.09-.13,0-.22l.32-.53a.12.12,0,0,1,.2,0,1.94,1.94,0,0,0,.53.29,1.88,1.88,0,0,0,.65.11A1.3,1.3,0,0,0,7,11.83.4.4,0,0,0,7.26,11.47ZM9.42,9.38c-.11-.36-.2-.71-.27-1a.35.35,0,0,1,0-.12.18.18,0,0,1,0-.09.15.15,0,0,1,.1,0H10a.17.17,0,0,1,.13,0,.2.2,0,0,1,.06.12c.12.57.26,1.12.42,1.67s.35,1.11.57,1.7c.22-.58.41-1.15.56-1.7s.3-1.12.43-1.68a.23.23,0,0,1,.07-.11.15.15,0,0,1,.12,0h.68a.15.15,0,0,1,.1,0,.16.16,0,0,1,0,.09.3.3,0,0,1,0,.12c-.07.33-.16.68-.27,1s-.22.74-.34,1.11-.25.74-.39,1.1-.27.69-.4,1a.22.22,0,0,1-.22.14h-.77a.22.22,0,0,1-.22-.14c-.13-.31-.27-.64-.4-1s-.27-.73-.39-1.1S9.52,9.75,9.42,9.38Z"/></svg>