<svg id="Layer_1" data-name="Layer 1" xmlns="http://www.w3.org/2000/svg" viewBox="0 0 16 16"><path d="M16,8.21H12.82a1.3,1.3,0,0,1,1.25-.87,1.64,1.64,0,0,1,1,.35.54.54,0,0,0,.36.17.47.47,0,0,0,.43-.45.43.43,0,0,0-.15-.32A2.18,2.18,0,0,0,14.1,6.5a2.23,2.23,0,0,0-2.24,1.71h-1a2,2,0,0,0-2-1.71,1.55,1.55,0,0,0-1.37.75V4.6c0-.3-.18-.4-.47-.4s-.44.1-.44.4V8.21H4.69a28.27,28.27,0,0,0-1.24-3c-.13-.25-.23-.37-.52-.37h0a.5.5,0,0,0-.54.33,26.13,26.13,0,0,0-1.3,3H0v1H.74c-.2.6-.37,1.12-.5,1.63a2.09,2.09,0,0,0-.11.56c0,.23.23.36.55.36s.31-.11.37-.35c.13-.47.28-1,.48-1.62h2.7c.16.53.33,1.1.45,1.62.06.23.15.35.37.35s.55-.1.55-.39a2.14,2.14,0,0,0-.09-.46c-.12-.52-.3-1.08-.49-1.7H6.54v2.15c0,.31.16.4.44.4s.47-.09.47-.38V11a1.48,1.48,0,0,0,1.4.76c1.23,0,2.05-1,2.08-2.59h.81A2.35,2.35,0,0,0,14,11.8a2.45,2.45,0,0,0,1.56-.5.63.63,0,0,0,.27-.43.46.46,0,0,0-.44-.43.57.57,0,0,0-.35.15,1.64,1.64,0,0,1-1,.37c-.79,0-1.38-.64-1.4-1.75H16ZM2.9,6c.27.6.58,1.42.85,2.23H2C2.31,7.4,2.62,6.58,2.9,6ZM8.69,7.34a1.2,1.2,0,0,1,1.18.87H7.53A1.18,1.18,0,0,1,8.69,7.34Zm0,3.62A1.27,1.27,0,0,1,7.45,9.55V9.21H10C10,10.29,9.5,11,8.69,11Z"/></svg>