<svg id="Layer_1" data-name="Layer 1" xmlns="http://www.w3.org/2000/svg" viewBox="0 0 16 16"><path d="M1.06,12.1a.52.52,0,0,0,0,.5.53.53,0,0,0,.45.25H5.63v1H1.52A1.51,1.51,0,0,1,.21,13.1a1.53,1.53,0,0,1,0-1.51L6.68.91a1.53,1.53,0,0,1,2.65,0l2.58,4.24-.86.52L8.47,1.43A.53.53,0,0,0,8,1.15a.51.51,0,0,0-.46.27ZM8.59,4.15h-1V9.08h1Zm7.26,6.18-4.79,4.79a.62.62,0,0,1-.19.12L8.66,16a.45.45,0,0,1-.16,0,.47.47,0,0,1-.35-.15A.48.48,0,0,1,8,15.34l.73-2.21a.62.62,0,0,1,.12-.19l4.79-4.79a.51.51,0,0,1,.71,0l1.47,1.47A.5.5,0,0,1,15.85,10.33ZM13,11.74,12.26,11,9.67,13.56l-.38,1.15,1.15-.38ZM14.79,10,14,9.21,13,10.27l.76.76Z"/></svg>