<svg id="Layer_1" data-name="Layer 1" xmlns="http://www.w3.org/2000/svg" viewBox="0 0 16 16"><rect x="15" y="11.86" width="1" height="1" fill="#231f20"/><rect x="12" y="11.86" width="1" height="1" fill="#231f20"/><rect x="6" y="11.86" width="1" height="1" fill="#231f20"/><rect x="9" y="11.86" width="1" height="1" fill="#231f20"/><rect x="3" y="11.86" width="1" height="1" fill="#231f20"/><rect y="11.86" width="1" height="1" fill="#231f20"/><rect y="8.97" width="1" height="0.97" fill="#231f20"/><rect y="6.07" width="1" height="0.97" fill="#231f20"/><rect y="3.14" width="1" height="1" fill="#231f20"/><rect x="3" y="3.14" width="1" height="1" fill="#231f20"/><rect x="12" y="3.14" width="1" height="1" fill="#231f20"/><rect x="9" y="3.14" width="1" height="1" fill="#231f20"/><rect x="6" y="3.14" width="1" height="1" fill="#231f20"/><rect x="15" y="3.14" width="1" height="1" fill="#231f20"/><rect x="15" y="8.97" width="1" height="0.97" fill="#231f20"/><rect x="15" y="6.07" width="1" height="0.97" fill="#231f20"/></svg>