<svg id="Layer_1" data-name="Layer 1" xmlns="http://www.w3.org/2000/svg" viewBox="0 0 16 16"><path d="M4.92,11.77c-.22,0-.31-.12-.37-.35-.12-.52-.29-1.09-.45-1.62H1.4c-.2.65-.35,1.15-.48,1.62-.06.24-.15.35-.37.35S0,11.64,0,11.41a2.09,2.09,0,0,1,.11-.56c.14-.54.32-1.08.53-1.73A27.34,27.34,0,0,1,2.25,5.19a.5.5,0,0,1,.54-.33h0c.29,0,.39.12.52.37A27.38,27.38,0,0,1,4.85,9.1c.21.67.4,1.27.53,1.82a2.14,2.14,0,0,1,.09.46C5.47,11.67,5.18,11.77,4.92,11.77ZM2.77,6a26.55,26.55,0,0,0-1.1,2.92H3.84A26,26,0,0,0,2.77,6ZM8.56,7.36a1.26,1.26,0,0,0-1.24,1.4v.8A1.27,1.27,0,0,0,8.56,11c.84,0,1.33-.71,1.33-1.84S9.46,7.36,8.56,7.36ZM5.87,0V16h10V0Zm2.85,11.8a1.48,1.48,0,0,1-1.4-.76v.34c0,.29-.21.38-.47.38s-.44-.09-.44-.4V4.62c0-.3.16-.4.44-.4s.47.1.47.4V7.26a1.57,1.57,0,0,1,1.37-.74c1.36,0,2.12,1,2.12,2.61S10,11.81,8.72,11.81Zm6.75-.5a2.45,2.45,0,0,1-1.56.5A2.37,2.37,0,0,1,11.6,9.15,2.36,2.36,0,0,1,14,6.52a2.18,2.18,0,0,1,1.61.59.41.41,0,0,1,.15.32.46.46,0,0,1-.43.44.54.54,0,0,1-.36-.17,1.71,1.71,0,0,0-1-.34c-.81,0-1.42.6-1.42,1.79S13.12,11,13.93,11a1.64,1.64,0,0,0,1-.37.57.57,0,0,1,.35-.15.46.46,0,0,1,.44.43A.63.63,0,0,1,15.47,11.31Z"/></svg>