<svg id="Layer_1" data-name="Layer 1" xmlns="http://www.w3.org/2000/svg" viewBox="0 0 16 16"><path d="M15,4.36H11.63a.5.5,0,0,0-.5.5V15H1.48V12.32l4.07-4.1h4.2v-1H5.34A.51.51,0,0,0,5,7.37L.63,11.76a.53.53,0,0,0-.15.35V15.5A.5.5,0,0,0,1,16H15a.5.5,0,0,0,.5-.5V4.86A.5.5,0,0,0,15,4.36Zm-.5,1V7.14H12.13V5.36ZM12.13,15V8.14h2.39V15ZM11,2.66c1.16.19,1.57.33,1.57.74v.2a.51.51,0,0,0,.5.5.5.5,0,0,0,.5-.5V2c0-.67-.51-1.95-2.43-1.95H8.73a.5.5,0,0,0-.5.5C8.23,2.2,9.83,2.46,11,2.66ZM11.15,1c1.33,0,1.43.8,1.43,1V2a6.75,6.75,0,0,0-1.41-.34c-1-.16-1.57-.3-1.81-.67Z"/></svg>