<svg id="Layer_1" data-name="Layer 1" xmlns="http://www.w3.org/2000/svg" viewBox="0 0 16 16"><path d="M15.8,12.58,9.33,1.93A1.5,1.5,0,0,0,8,1.15a1.52,1.52,0,0,0-1.33.77L.19,12.59a1.53,1.53,0,0,0,0,1.51,1.51,1.51,0,0,0,1.31.75h13a1.52,1.52,0,0,0,1.32-2.27Zm-.87,1a.53.53,0,0,1-.45.25h-13a.55.55,0,0,1-.45-.25.53.53,0,0,1,0-.5L7.53,2.43v0A.52.52,0,0,1,8,2.15a.53.53,0,0,1,.47.28l6.46,10.65A.54.54,0,0,1,14.93,13.6ZM10.6,7.82,8.71,9.72l1.89,1.89-.7.71L8,10.43,6.1,12.32l-.7-.71L7.29,9.72,5.4,7.82l.7-.71L8,9l1.9-1.9Z"/></svg>