<svg id="Layer_1" data-name="Layer 1" xmlns="http://www.w3.org/2000/svg" viewBox="0 0 16 16"><path d="M15.44,9h.05L14.8,5.8a2.36,2.36,0,0,0-1.35-1.57l-.27-1.29c-.19-.62-.7-1.33-2.12-1.18l-.17,0c-1,.16-1.56.86-1.56,2.08L9.39,5A2.55,2.55,0,0,0,9,5.8H7A2.76,2.76,0,0,0,6.61,5l.06-1.17c0-1.2-.52-1.9-1.55-2.06l-.22,0A1.72,1.72,0,0,0,2.81,3L2.55,4.22A2.48,2.48,0,0,0,1.19,5.85L.51,9H.56a3.41,3.41,0,0,0-.48,1.74,3.5,3.5,0,0,0,7,0A4.07,4.07,0,0,0,7,10.15h0l.06-.94H8.89l.06.94H9a4.07,4.07,0,0,0-.06.61,3.5,3.5,0,0,0,7,0A3.41,3.41,0,0,0,15.44,9ZM3.78,3.23c.08-.27.23-.56,1-.49l.2,0c.47.08.72.27.72,1.05l0,.47a3.6,3.6,0,0,0-.82-.24L4.45,4a5.85,5.85,0,0,0-.83,0Zm-.2,10a2.5,2.5,0,1,1,2.5-2.5A2.5,2.5,0,0,1,3.58,13.26ZM6.16,8.42A3.51,3.51,0,0,0,3.58,7.26a3.39,3.39,0,0,0-1.78.51L2.16,6.1c.18-.6.6-1.28,2.15-1.12L4.65,5c1.14.19,1.59.83,1.59,2.24Zm1-.08.07-1c0-.2,0-.41,0-.63H8.8a5.16,5.16,0,0,0,0,.67l.06,1Zm3.89-5.56.15,0c.77-.07.93.21,1,.44l.17.79a4.39,4.39,0,0,0-.88,0l-.31.06a3.63,3.63,0,0,0-.84.24l0-.44C10.33,3.05,10.58,2.86,11.06,2.78ZM9.76,7.31c0-1.44.45-2.08,1.6-2.27L11.65,5c1.59-.15,2,.52,2.18,1.08l.37,1.7a3.44,3.44,0,0,0-4.36.66Zm2.66,6a2.5,2.5,0,1,1,2.5-2.5A2.5,2.5,0,0,1,12.42,13.26Z"/></svg>