<svg id="Layer_1" data-name="Layer 1" xmlns="http://www.w3.org/2000/svg" viewBox="0 0 16 16"><rect x="4.23" y="9.23" width="2.48" height="0.76"/><path d="M3.53,6.58H2.84c-.1,0-.2,0-.2.19a9.21,9.21,0,0,1-.7,2.36,17.65,17.65,0,0,1-.79-2.36A.21.21,0,0,0,1,6.58H.16c-.09,0-.1.07-.1.14v.15a9.93,9.93,0,0,0,1.29,3.21,5.24,5.24,0,0,1-.7.85L.55,11a.1.1,0,0,0,.1.1l.4.38.1.09s.1,0,.1-.09A7,7,0,0,0,2.84,9.13c.29-.75.59-1.6.79-2.26v-.1C3.63,6.68,3.63,6.58,3.53,6.58Z"/><path d="M11.77,4.41c-.2,0-.29.09-.39.28l-1.69,5-.4-1.79c0-.19-.2-.29-.4-.29H7.6v.76h.9l.79,2.83c0,.17.15.26.32.28h.08c.2,0,.3-.1.4-.29l2-6h3.87V4.41Z"/><rect x="4.23" y="7.62" width="2.48" height="0.76"/><polygon points="15.25 6.96 13.86 8.19 12.47 6.96 11.87 7.53 13.26 8.76 11.87 10.08 12.47 10.64 13.86 9.32 15.25 10.64 15.84 10.08 14.45 8.76 15.84 7.53 15.25 6.96"/></svg>