<svg id="Layer_1" data-name="Layer 1" xmlns="http://www.w3.org/2000/svg" viewBox="0 0 16 16"><path d="M8.71,5.5a.5.5,0,1,1,.5-.5A.5.5,0,0,1,8.71,5.5ZM4,12.36a.65.65,0,0,0,.4-.64V10.46A.38.38,0,0,0,4,10.05H3c-.33,0-.41.16-.41.41s.06.39.39.39h.6v.7a.22.22,0,0,1-.11.2,1.19,1.19,0,0,1-.51.1c-.79,0-1.24-.54-1.24-1.47s.53-1.49,1.23-1.49a1.53,1.53,0,0,1,.72.18A.77.77,0,0,0,4,9.19a.47.47,0,0,0,.39-.46.39.39,0,0,0-.18-.28,2.29,2.29,0,0,0-1.32-.36A2.08,2.08,0,0,0,.79,10.4a2,2,0,0,0,2.05,2.24A2.52,2.52,0,0,0,4,12.36ZM6.37,9H7.65c.41,0,.48-.12.48-.41S8,8.16,7.65,8.16H6.05a.6.6,0,0,0-.69.66V12a.58.58,0,0,0,.65.62H7.64c.39,0,.49-.1.49-.41s-.09-.39-.49-.39H6.35c-.06,0-.09,0-.09-.11v-1H7.45c.39,0,.48-.09.48-.41s0-.38-.48-.38H6.26V9.07A.11.11,0,0,1,6.37,9Zm8.83-4.5a.45.45,0,0,0-.06-.19l-.05-.07L15,4.11l0,0-6-4H9s-.05,0-.08,0a.65.65,0,0,0-.2,0H8.61a.45.45,0,0,0-.18.07h0l-6,4,0,0-.07.08-.05.07a.45.45,0,0,0-.06.19s0,0,0,0V6h1V4.76L8.71,1.1l5.5,3.66V15h-12v.5a.5.5,0,0,0,.5.5h12a.5.5,0,0,0,.5-.5V4.5S15.2,4.47,15.2,4.45Z"/></svg>