<svg id="Layer_1" data-name="Layer 1" xmlns="http://www.w3.org/2000/svg" viewBox="0 0 16 16"><path d="M2,11a22,22,0,0,0,3.49.69l.12-1A22.65,22.65,0,0,1,2,9.92V7.19a23,23,0,0,0,3.83.73l.11-1A21.27,21.27,0,0,1,2,6.14V3.42c1.8.83,5.46.86,6,.86s4.2,0,6-.87V6h1V2.4h0a.53.53,0,0,0,0-.12c0-1.95-6.29-2-7-2s-7,0-7,2c0,0,0,.08,0,.12H1V14.29a.51.51,0,0,0,.33.47,21.63,21.63,0,0,0,5.17,1l.08-1A22.08,22.08,0,0,1,2,13.92ZM8,1.28c3.46,0,5.61.62,6,1-.36.38-2.51,1-6,1s-5.62-.62-6-1C2.4,1.9,4.55,1.28,8,1.28ZM11.5,5.61,7,8.21V13.4L11.5,16,16,13.4V8.21ZM15,12.82l-3.5,2-3.5-2v-4l3.5-2,3.5,2ZM11.3,8.28a1.49,1.49,0,0,1,1.45.48c.67.82,0,1.56-.65,2.22v.26h-1v-.68l.15-.14c.81-.8.81-.93.73-1a.53.53,0,0,0-.51-.13.66.66,0,0,0-.52.41L10,9.35A1.64,1.64,0,0,1,11.3,8.28Zm-.22,3.58h1v1h-1Z"/></svg>