<svg id="Layer_1" data-name="Layer 1" xmlns="http://www.w3.org/2000/svg" viewBox="0 0 16 16"><path d="M15,11.13h1V16H11.13V15H15ZM1,1H4.86V0H0V4.86H1ZM1,11.14H0V16H4.87V15H1ZM11.14,0V1H15V4.87h1V0Zm-4,1.78c1.68,0,3.5.5,3.5,1.6,0,0,0,.06,0,.09h0V6.32a.5.5,0,0,1-.25.43,6.32,6.32,0,0,1-3.14.83,7.35,7.35,0,0,1-3.36-.83.5.5,0,0,1-.25-.43V3.48h0s0-.06,0-.09C3.63,2.29,5.44,1.79,7.13,1.79ZM9.63,6V4.54A6.48,6.48,0,0,1,7.13,5a6.48,6.48,0,0,1-2.5-.45V6A5.87,5.87,0,0,0,9.63,6Zm-5-2.6A4.13,4.13,0,0,0,7.13,4a3.86,3.86,0,0,0,2.49-.6,3.86,3.86,0,0,0-2.49-.6C5.56,2.79,4.7,3.24,4.63,3.42Zm7.94,9.88a6.32,6.32,0,0,1-3.14.83,7.35,7.35,0,0,1-3.36-.83.5.5,0,0,1-.25-.43V10h0s0-.06,0-.09c0-1.1,1.81-1.6,3.5-1.6s3.5.5,3.5,1.6c0,0,0,.06,0,.09h0v2.84A.5.5,0,0,1,12.57,13.3ZM6.82,10a4.13,4.13,0,0,0,2.5.57,3.86,3.86,0,0,0,2.49-.6,3.86,3.86,0,0,0-2.49-.6C7.75,9.34,6.89,9.79,6.82,10Zm5,2.6V11.09a6.48,6.48,0,0,1-2.5.45,6.48,6.48,0,0,1-2.5-.45v1.47A5.87,5.87,0,0,0,11.82,12.57Z"/></svg>