<svg id="Layer_1" data-name="Layer 1" xmlns="http://www.w3.org/2000/svg" viewBox="0 0 16 16"><path d="M8,9.09A2.1,2.1,0,0,0,10.1,7V6A2.1,2.1,0,1,0,5.91,6V7A2.1,2.1,0,0,0,8,9.09ZM6.91,6A1.1,1.1,0,1,1,9.1,6V7A1.1,1.1,0,1,1,6.91,7Zm-3.53.8a2.1,2.1,0,0,0,2.1-2.1v-1a2.1,2.1,0,0,0-4.2,0v1A2.11,2.11,0,0,0,3.38,6.79Zm-1.1-3.1a1.1,1.1,0,0,1,2.2,0v1a1.1,1.1,0,1,1-2.2,0ZM16,7.31V10.6a.5.5,0,0,1-.5.5H12.35v2.81a.5.5,0,0,1-.5.5H4.16a.5.5,0,0,1-.5-.5V11.1H.5a.5.5,0,0,1-.5-.5V7.31A.49.49,0,0,1,.22,6.9L1,6.35l.57.82L1,7.57V10.1H3.7a.5.5,0,0,1,.18-.23L5.63,8.66l.57.82L4.66,10.54v2.87h6.69V10.54L9.81,9.48l.57-.82,1.75,1.21a.5.5,0,0,1,.18.23H15V7.57l-.58-.4L15,6.35l.79.55A.49.49,0,0,1,16,7.31Zm-3.39-.52a2.11,2.11,0,0,0,2.11-2.1v-1a2.1,2.1,0,1,0-4.2,0v1A2.1,2.1,0,0,0,12.61,6.79Zm-1.09-3.1a1.1,1.1,0,1,1,2.2,0v1a1.1,1.1,0,1,1-2.2,0Z"/></svg>