<svg id="Layer_1" data-name="Layer 1" xmlns="http://www.w3.org/2000/svg" viewBox="0 0 16 16"><path d="M9,12.46l.16,1a7.62,7.62,0,0,1-1.18.1C4.87,13.55,2,11.5.54,8.2L.45,8l.09-.2A10,10,0,0,1,1.67,5.86l.8.59A9.59,9.59,0,0,0,1.55,8,7.33,7.33,0,0,0,8,12.55,5.77,5.77,0,0,0,9,12.46Zm1.32-2.83,3.15,3.15-.71.71L9.63,10.34a2.85,2.85,0,0,1-4-4L2.51,3.22l.71-.71L6.37,5.66A2.85,2.85,0,0,1,8,5.14a2.8,2.8,0,0,1,1.07.21h0a2.84,2.84,0,0,1,1.27,4.28Zm-1.44,0L6.39,7.1a1.81,1.81,0,0,0-.25.9A1.87,1.87,0,0,0,8,9.86,1.81,1.81,0,0,0,8.9,9.61ZM7.06,6.28,9.57,8.8A1.84,1.84,0,0,0,8,6,1.83,1.83,0,0,0,7.06,6.28Zm8.4,1.52C14,4.5,11.13,2.45,8,2.45a7.26,7.26,0,0,0-.93.06l.13,1a7,7,0,0,1,.8,0A7.33,7.33,0,0,1,14.45,8a9.28,9.28,0,0,1-1.28,2l.77.65A10.45,10.45,0,0,0,15.46,8.2l.09-.2Z"/></svg>