<svg id="Layer_1" data-name="Layer 1" xmlns="http://www.w3.org/2000/svg" viewBox="0 0 16 16"><path d="M16,9.6V6.4l-2.08-.25a6.18,6.18,0,0,0-.42-1l1.29-1.65L12.53,1.21,10.88,2.5a6.18,6.18,0,0,0-1-.42L9.6,0H6.4L6.15,2.08a6.18,6.18,0,0,0-1,.42L3.47,1.21,1.21,3.47,2.5,5.12a6.18,6.18,0,0,0-.42,1L0,6.4V9.6l2.08.25a6.18,6.18,0,0,0,.42,1L1.21,12.53l2.26,2.26,1-.79-.61-.79-.31.25-1-1L3.7,11l-.17-.29A5.24,5.24,0,0,1,3,9.27l-.09-.33L1,8.71V7.29l1.86-.23L3,6.73a5.24,5.24,0,0,1,.58-1.4L3.7,5,2.55,3.56l1-1L5,3.7l.29-.17A5.24,5.24,0,0,1,6.73,3l.33-.09L7.29,1H8.71l.23,1.86L9.27,3a5.24,5.24,0,0,1,1.4.58L11,3.7l1.48-1.16,1,1L12.3,5l.17.29a5.24,5.24,0,0,1,.58,1.4l.09.33L15,7.29V8.71l-1.86.23-.09.33a5.24,5.24,0,0,1-.58,1.4L12.3,11l1.16,1.48-1,1-.27-.22-.61.79,1,.76,2.26-2.26L13.5,10.88a6.18,6.18,0,0,0,.42-1Z"/><path d="M10.64,5.37a4,4,0,1,0-5.1,6.15,1.26,1.26,0,0,1,.5,1v2.74a.8.8,0,0,0,.8.8H9.13a.8.8,0,0,0,.79-.8V12.52a1.28,1.28,0,0,1,.53-1,4,4,0,0,0,.19-6.13ZM7,15.06V13.83H8.92v1.23Zm2.8-4.35a2.3,2.3,0,0,0-.92,1.81v.31H7v-.31a2.24,2.24,0,0,0-.89-1.79A3,3,0,0,1,7.62,5.38,3,3,0,0,1,10,6.12a3,3,0,0,1-.14,4.59Z"/></svg>