<svg id="Layer_1" data-name="Layer 1" xmlns="http://www.w3.org/2000/svg" viewBox="0 0 16 16"><path d="M13.11,3h1.37V.7A.67.67,0,0,0,13.8,0H2.2A.67.67,0,0,0,1.52.7V3H3.13l2.7,3.89a2,2,0,0,1,0,2.26L3.23,13H1.52V15.3A.68.68,0,0,0,2.2,16H13.8a.68.68,0,0,0,.68-.68V13H12.91L10.17,9.13a2,2,0,0,1,0-2.26ZM2.48,1h11V2h-11Zm11,14h-11V14h11Zm-1.83-2H4.41l1.68-2.52.53-.77A2.78,2.78,0,0,0,7.1,8.45H8.9a2.78,2.78,0,0,0,.48,1.23ZM9.38,6.32a2.89,2.89,0,0,0-.47,1.17H7.09a2.89,2.89,0,0,0-.47-1.17L4.43,3.17h7.31L9.91,5.56Z"/></svg>