<svg id="Layer_1" data-name="Layer 1" xmlns="http://www.w3.org/2000/svg" viewBox="0 0 16 16"><path d="M16,3c0,1.1,0,2.3,0,2.3v.5h-.5a1,1,0,0,0-1,1v8.5a.7.7,0,0,1-.7.7H2.2a.7.7,0,0,1-.7-.7V6.8a1,1,0,0,0-1-1H0V3H1V4.86A2,2,0,0,1,2.51,6.8V15h11V6.8A2,2,0,0,1,15,4.86c0-.45,0-1.17,0-1.86ZM2.5,2.72V2.28A2.28,2.28,0,0,1,4.78,0h6.44A2.28,2.28,0,0,1,13.5,2.28v.44A2.28,2.28,0,0,1,11.22,5H4.78A2.28,2.28,0,0,1,2.5,2.72Zm1,0A1.28,1.28,0,0,0,4.78,4h6.44A1.28,1.28,0,0,0,12.5,2.72V2.28A1.28,1.28,0,0,0,11.22,1H4.78A1.28,1.28,0,0,0,3.5,2.28Zm0,7.81c0,1.66,2,3,4.46,3s4.46-1.3,4.46-3a.46.46,0,0,0-.92,0c0,1.11-1.62,2.05-3.54,2.05s-3.54-.94-3.54-2.05,1.62-2,3.54-2a5.8,5.8,0,0,1,1.36.13l.05,0-1,.48a.5.5,0,0,0-.23.67.52.52,0,0,0,.45.28A.43.43,0,0,0,8.88,10l2.35-1.16L10.06,6.5a.5.5,0,0,0-.67-.23.51.51,0,0,0-.22.67l.39.79A6.89,6.89,0,0,0,8,7.58C5.5,7.58,3.54,8.87,3.54,10.53Z"/></svg>