<svg id="Layer_1" data-name="Layer 1" xmlns="http://www.w3.org/2000/svg" viewBox="0 0 16 16"><path d="M16,2.5V5.8h-.5a1,1,0,0,0-1,1v8.5a.7.7,0,0,1-.7.7H2.2a.7.7,0,0,1-.7-.7V6.8a1,1,0,0,0-1-1H0V2.5H3.5v1H1V4.86A2,2,0,0,1,2.51,6.8V15h11V6.8A2,2,0,0,1,15,4.86V3.5H12.16v-1ZM5.07,13.5a.57.57,0,1,1-.57-.57A.56.56,0,0,1,5.07,13.5Zm-.5,0a.07.07,0,0,0-.14,0C4.43,13.58,4.57,13.58,4.57,13.5Zm4,0A.57.57,0,1,1,8,12.93.56.56,0,0,1,8.57,13.5Zm-.5,0a.07.07,0,0,0-.14,0C7.93,13.58,8.07,13.58,8.07,13.5Zm4,0a.57.57,0,1,1-.57-.57A.56.56,0,0,1,12.07,13.5Zm-.5,0a.07.07,0,0,0-.14,0C11.43,13.58,11.57,13.58,11.57,13.5Zm-6.5-4a.57.57,0,1,1-.57-.57A.56.56,0,0,1,5.07,9.5Zm-.5,0a.07.07,0,0,0-.14,0C4.43,9.58,4.57,9.58,4.57,9.5Zm4,0A.57.57,0,1,1,8,8.93.56.56,0,0,1,8.57,9.5Zm-.5,0a.07.07,0,0,0-.14,0C7.93,9.58,8.07,9.58,8.07,9.5Zm4,0a.57.57,0,1,1-.57-.57A.56.56,0,0,1,12.07,9.5Zm-.5,0a.07.07,0,0,0-.14,0C11.43,9.58,11.57,9.58,11.57,9.5ZM6.25,10.93a.57.57,0,1,1-.57.57A.56.56,0,0,1,6.25,10.93Zm.07.57a.07.07,0,0,0-.14,0C6.18,11.58,6.32,11.58,6.32,11.5Zm3.43-.57a.57.57,0,1,1-.57.57A.56.56,0,0,1,9.75,10.93Zm.07.57a.07.07,0,0,0-.14,0C9.68,11.58,9.82,11.58,9.82,11.5ZM3.94,1.17A.69.69,0,0,1,3.81.42.69.69,0,0,1,4.45,0h7.09a.7.7,0,0,1,.51,1.18L9.78,3.58V7.34L6.14,6.55v-3ZM5.13,1l2,2.19V5.75l1.64.35V3.19L10.84,1Z"/></svg>