<svg id="Layer_1" data-name="Layer 1" xmlns="http://www.w3.org/2000/svg" viewBox="0 0 16 16"><path d="M0,2.5V5.8h.5a1,1,0,0,1,1,1v8.5a.7.7,0,0,0,.7.7H13.8a.7.7,0,0,0,.7-.7V6.8a1,1,0,0,1,1-1H16V5.3S16,4.1,16,3V2.5ZM15,4.86A2,2,0,0,0,13.5,6.8V15H2.5V6.8A2,2,0,0,0,1,4.86V3.5H15Zm-3.41,6.33a1.87,1.87,0,0,0,.33.53v1c-.71,0-1-.64-1.24-1.1-.08-.17-.24-.51-.33-.54s-.26.37-.34.54c-.22.46-.53,1.1-1.23,1.1s-1-.64-1.24-1.1c-.08-.17-.24-.51-.33-.54s-.25.36-.33.54c-.23.46-.53,1.1-1.24,1.1s-1-.64-1.23-1.1c-.08-.17-.24-.51-.33-.54v-1c.71,0,1,.64,1.24,1.11.08.16.24.5.33.53s.25-.36.33-.53c.23-.47.53-1.11,1.24-1.11s1,.64,1.23,1.11c.08.16.24.5.33.53s.26-.37.34-.53c.22-.47.53-1.11,1.24-1.11S11.37,10.72,11.59,11.19ZM3.93,7.08v-1c.71,0,1,.64,1.23,1.11.08.16.24.5.33.53s.25-.36.34-.53c.19-.41.45-1,1-1.08a.88.88,0,0,1,.24,0c.71,0,1,.64,1.24,1.11.08.16.24.5.33.53s.26-.37.34-.53c.22-.47.52-1.11,1.23-1.11s1,.64,1.24,1.11c.08.16.24.5.33.53v1c-.7,0-1-.64-1.23-1.1-.08-.17-.24-.51-.33-.54s-.26.37-.34.54c-.23.46-.53,1.1-1.24,1.1s-1-.64-1.23-1.1a1.81,1.81,0,0,0-.33-.54h0a2.05,2.05,0,0,0-.17.4C6.71,8,6.41,8.72,5.5,8.72c-.71,0-1-.64-1.24-1.1C4.18,7.45,4,7.11,3.93,7.08Z"/></svg>