<svg id="Layer_1" data-name="Layer 1" xmlns="http://www.w3.org/2000/svg" viewBox="0 0 16 16"><path d="M9.37,6.64a4.52,4.52,0,0,0,.34-1.78A4.86,4.86,0,1,0,4.86,9.73a4.59,4.59,0,0,0,1.78-.34l1.3,1.25v1.82H9.52l.31.32v1.69h1.84L13.2,16H16V13.29ZM15,15H13.61l-1.52-1.53H10.83v-1.1l-.9-.91h-1V10.22l-2.11-2-.32.16a3.41,3.41,0,0,1-1.65.39A3.87,3.87,0,1,1,8.71,4.86a3.6,3.6,0,0,1-.38,1.67l-.16.32L15,13.7ZM4.43,3a1.5,1.5,0,1,0,1.49,1.5A1.5,1.5,0,0,0,4.43,3Zm0,2a.5.5,0,0,1-.5-.5.5.5,0,1,1,1,0A.49.49,0,0,1,4.43,5Z"/></svg>