<svg id="Layer_1" data-name="Layer 1" xmlns="http://www.w3.org/2000/svg" viewBox="0 0 16 16"><path d="M5.87,10.84a3,3,0,0,0,0,4.24,3,3,0,0,0,4.24,0,3,3,0,0,0-4.24-4.24ZM9.4,14.37a2,2,0,0,1-2.83,0,2,2,0,1,1,2.83,0Zm5.69-8.48a3,3,0,1,0,0,4.25A3,3,0,0,0,15.09,5.89Zm-.71,3.54a2,2,0,0,1-2.83,0A2,2,0,0,1,13,6a2,2,0,0,1,1.41.58A2,2,0,0,1,14.38,9.43ZM4.83,5.6a3,3,0,1,0-3.59,4.81A3,3,0,0,0,3,11a3,3,0,0,0,1.8-5.4Zm-.2,3.6a2,2,0,1,1-.4-2.8A2,2,0,0,1,4.63,9.2ZM6.2,5.44A2.9,2.9,0,0,0,8,6a3.11,3.11,0,0,0,.43,0A3,3,0,0,0,11,2.61a3,3,0,0,0-1.17-2A3,3,0,1,0,6.2,5.44Zm.19-3.6a2,2,0,0,1,1.32-.78L8,1a2,2,0,0,1,1.19.4A1.94,1.94,0,0,1,10,2.75,2,2,0,0,1,9.6,4.24,2.06,2.06,0,0,1,8.28,5,2,2,0,0,1,6.8,4.64,2,2,0,0,1,6,3.33,2,2,0,0,1,6.39,1.84Z" fill="#231f20"/></svg>