<svg id="Layer_1" data-name="Layer 1" xmlns="http://www.w3.org/2000/svg" viewBox="0 0 16 16"><path d="M2.08,5.91a3.18,3.18,0,0,0,1.09.2,2.87,2.87,0,0,0,1.21-.26A3,3,0,0,0,4.25.31,2.94,2.94,0,0,0,2,.37,3,3,0,0,0,.37,2a3,3,0,0,0,0,2.29A3,3,0,0,0,2.08,5.91ZM1.3,2.39A2,2,0,0,1,2.36,1.28a2.06,2.06,0,0,1,.81-.17,2,2,0,0,1,.72.13A2,2,0,0,1,4,4.94,2,2,0,0,1,2.45,5,2,2,0,0,1,1.3,2.39ZM9.92,3.91a2.92,2.92,0,0,0,1.41,1.81,3,3,0,0,0,1.47.39A3.22,3.22,0,0,0,13.61,6a3,3,0,0,0,1.81-1.42,3,3,0,0,0,.27-2.27,3,3,0,0,0-5.78,1.6Zm2.35-2.73a2,2,0,0,1,2.46,1.39,2,2,0,0,1-.18,1.52,2,2,0,0,1-2.73.76,2,2,0,0,1-.94-1.2A2,2,0,0,1,12.27,1.18Zm-1.51,5.5A3,3,0,1,0,5.27,9.1a3,3,0,0,0,1.66,1.59,3.14,3.14,0,0,0,1.09.2,2.87,2.87,0,0,0,1.21-.26A3,3,0,0,0,10.76,6.68Zm-1.94,3a2,2,0,0,1-1.53,0A2,2,0,0,1,6.19,8.7a2,2,0,0,1,0-1.53A2,2,0,0,1,7.21,6.06,1.89,1.89,0,0,1,8,5.89a2,2,0,0,1,.81,3.83Zm-4.54.37A2.94,2.94,0,0,0,2,10.15,3,3,0,0,0,.4,11.81a3,3,0,0,0,1.71,3.88,3.14,3.14,0,0,0,1.09.2,2.87,2.87,0,0,0,1.21-.26,3,3,0,0,0-.13-5.54ZM4,14.72a2,2,0,0,1-2.63-1,2,2,0,0,1,1-2.64,2.06,2.06,0,0,1,.81-.17A2,2,0,0,1,4,14.72Zm11.72-2.63A3,3,0,0,0,12,10a3,3,0,0,0-2.09,3.69h0a3,3,0,0,0,2.89,2.2,3.22,3.22,0,0,0,.81-.11A3,3,0,0,0,15.72,12.09Zm-1.15,1.78A2,2,0,1,1,12.3,11a2,2,0,0,1,1.52.19,2,2,0,0,1,.75,2.72Z" fill="#231f20"/></svg>