<svg id="Layer_1" data-name="Layer 1" xmlns="http://www.w3.org/2000/svg" viewBox="0 0 16 16"><path d="M16,4.21a1.5,1.5,0,0,1-.44,1.06l-3.4,3.4a1.47,1.47,0,0,1-1.06.44A1.46,1.46,0,0,1,10,8.67l.7-.7a.51.51,0,0,0,.71,0l3.4-3.41A.47.47,0,0,0,15,4.21a.49.49,0,0,0-.15-.36L12.14,1.14a.51.51,0,0,0-.71,0L8,4.54a.5.5,0,0,0,0,.71L7.32,6a1.51,1.51,0,0,1,0-2.12L10.72.43a1.55,1.55,0,0,1,2.13,0l2.71,2.72A1.5,1.5,0,0,1,16,4.21ZM8,10.74a.48.48,0,0,1,0,.7l-3.4,3.41a.51.51,0,0,1-.71,0L1.15,12.13a.48.48,0,0,1,0-.7L4.55,8a.51.51,0,0,1,.71,0L6,7.31a1.51,1.51,0,0,0-2.12,0L.44,10.72a1.49,1.49,0,0,0,0,2.12l2.71,2.71A1.48,1.48,0,0,0,4.21,16a1.45,1.45,0,0,0,1.06-.44l3.41-3.4a1.51,1.51,0,0,0,0-2.12Zm-3.06,1,6.88-6.88-.7-.71L4.2,11.08Z"/></svg>