<svg id="Layer_1" data-name="Layer 1" xmlns="http://www.w3.org/2000/svg" viewBox="0 0 16 16"><path d="M10.5,12.09H1V1h9v.78h1V.5a.5.5,0,0,0-.5-.5H.5A.5.5,0,0,0,0,.5v15a.5.5,0,0,0,.5.5h10a.5.5,0,0,0,.5-.5V12.59A.5.5,0,0,0,10.5,12.09ZM10,15H1V13.09h9Zm4.57-9.42H8.48a3.24,3.24,0,0,0-.66-.93,3.34,3.34,0,1,0-2.36,5.71h0a3.32,3.32,0,0,0,2.37-1,3.11,3.11,0,0,0,.65-.94h1l.91.91.81-.8h.14l.86.85.92-.92h1.41L16,7Zm-.45,1.9H12.71L12.2,8l-.44-.44h-1l-.39.39-.5-.51-2.12,0-.11.33a2,2,0,0,1-.54.88,2.33,2.33,0,0,1-1.66.68h0A2.3,2.3,0,0,1,3.8,8.67,2.34,2.34,0,1,1,7.12,5.36a2.3,2.3,0,0,1,.55.87l.11.35h6.38l.42.43ZM4.63,6.23A1.11,1.11,0,0,0,4.29,7a1.15,1.15,0,0,0,.34.82h0a1.15,1.15,0,1,0,0-1.63Zm.92.92a.15.15,0,0,1-.21,0,.18.18,0,0,1,0-.22.15.15,0,0,1,.21,0A.16.16,0,0,1,5.55,7.15Z"/></svg>