<svg id="Layer_1" data-name="Layer 1" xmlns="http://www.w3.org/2000/svg" viewBox="0 0 16 16"><path d="M3.73,11.31H5.56v1H2.73v-3H0v-1H2.73v-3H0v-1H2.73v-3h5.5a5.47,5.47,0,0,1,5.35,4.24l-1,.22A4.48,4.48,0,0,0,8.23,2.31H3.73Zm10.7,1a2.8,2.8,0,0,1-.37.89l1.08,1.08-.71.71-1-1.06a2.82,2.82,0,0,1-1,.48V16h-1V14.46A2.72,2.72,0,0,1,10.23,14l-1.1,1.1-.71-.71,1.09-1.09a2.66,2.66,0,0,1-.44-1H7.51v-1H9a2.92,2.92,0,0,1,.44-1.14L8.36,9.08l.71-.71,1.12,1.12a2.94,2.94,0,0,1,1.06-.44V7.5h1V9.05a2.8,2.8,0,0,1,1.09.47l1.09-1.09.71.7L14,10.23a2.72,2.72,0,0,1,.42,1.11H16v1Zm-.93-.59a1.75,1.75,0,1,0-1.75,1.75A1.76,1.76,0,0,0,13.5,11.75Z"/></svg>