<svg id="Layer_1" data-name="Layer 1" xmlns="http://www.w3.org/2000/svg" viewBox="0 0 16 16"><path d="M15,2.22a.53.53,0,0,0,0-.12c0-1.95-6.29-2-7-2s-7,0-7,2c0,0,0,.08,0,.12H1V14.1a.5.5,0,0,0,.33.47,21.33,21.33,0,0,0,5.17,1l.08-1A22.08,22.08,0,0,1,2,13.74v-3a23.17,23.17,0,0,0,3.49.69l.12-1A21.25,21.25,0,0,1,2,9.73V7a23,23,0,0,0,3.83.73l.11-1A21.52,21.52,0,0,1,2,6V3.23c1.8.84,5.46.87,6,.87s4.2,0,6-.87V5.85h1V2.22ZM8,3.1c-3.47,0-5.62-.62-6-1,.35-.39,2.5-1,6-1s5.61.61,6,1C13.61,2.48,11.46,3.1,8,3.1Zm3.36,7.34,0-2.51a1.72,1.72,0,0,1,1,.45c.2.17.26.24.45.24h0a.58.58,0,0,0,.48-.55.82.82,0,0,0-.39-.58,3.13,3.13,0,0,0-1.52-.55V6.48c0-.28-.11-.43-.4-.43h0c-.29,0-.42.15-.41.44V7a2.2,2.2,0,0,0-2,2.17c0,1.39,1,1.85,2.06,2.16l0,2.67a2.92,2.92,0,0,1-1.21-.54.69.69,0,0,0-.42-.18h0a.53.53,0,0,0-.46.51.65.65,0,0,0,.27.45,3.36,3.36,0,0,0,1.83.73v.54c0,.32.09.43.4.43h0c.31,0,.41-.14.41-.44,0-.08,0-.35,0-.54a2.19,2.19,0,0,0,2.09-2.25C13.47,11.34,12.52,10.8,11.36,10.44ZM9.55,9.09a1.1,1.1,0,0,1,1-1.16v2.26C10,10,9.55,9.74,9.55,9.09ZM11.39,14l0-2.41c.56.2,1.05.48,1.05,1.16A1.17,1.17,0,0,1,11.39,14Z"/></svg>