<svg id="Layer_1" data-name="Layer 1" xmlns="http://www.w3.org/2000/svg" viewBox="0 0 16 16"><path d="M13.09.53a2.71,2.71,0,0,0-2.66,2.29H9.88c-.29,0-.44.1-.44.39s.15.4.44.4h.42c0,.15,0,.3,0,.46s0,.26,0,.38H9.88c-.29,0-.44.1-.44.39s.15.39.44.39h.51a2.53,2.53,0,0,0,2.55,2.31A2.62,2.62,0,0,0,14.64,7a.55.55,0,0,0,.21-.37.42.42,0,0,0-.36-.42.65.65,0,0,0-.34.15A2.1,2.1,0,0,1,13,6.69a1.66,1.66,0,0,1-1.68-1.46h1.83c.28,0,.44-.1.44-.41s-.16-.37-.44-.37H11.22c0-.12,0-.25,0-.39a3.39,3.39,0,0,1,0-.45h2.41c.29,0,.45-.11.45-.4s-.16-.39-.45-.39H11.37a1.76,1.76,0,0,1,1.72-1.45,1.73,1.73,0,0,1,.93.26c.26.17.33.2.45.2a.47.47,0,0,0,.39-.46c0-.13-.07-.24-.24-.38A2.34,2.34,0,0,0,13.09.53Zm-7.9,0c-.31,0-.4.1-.46.42A6.47,6.47,0,0,1,3.4,3.54,5.89,5.89,0,0,1,2.17,1C2.12.68,2,.57,1.72.57s-.47.1-.47.42A5.65,5.65,0,0,0,2.34,3.56H1.58c-.29,0-.44.1-.44.39s.15.39.44.39H2.92v.87H1.58c-.29,0-.44.1-.44.39s.15.39.44.39H2.92V7.08c0,.3.15.42.47.42s.46-.12.46-.42V6H5.24c.28,0,.44-.1.44-.39s-.16-.39-.44-.39H3.85V4.34H5.24c.28,0,.44-.1.44-.39s-.16-.39-.44-.39H4.46A6.19,6.19,0,0,0,5.66,1c0-.29-.16-.4-.47-.4ZM7.76,6.88h0c-.25,0-.36.14-.36.39v.41A1.91,1.91,0,0,0,5.63,9.57c0,1.21.84,1.61,1.8,1.88l0,2.33a2.7,2.7,0,0,1-1.06-.47A.59.59,0,0,0,6,13.15H6a.46.46,0,0,0-.4.45.58.58,0,0,0,.24.38,2.85,2.85,0,0,0,1.59.64v.47c0,.28.07.38.34.38h0c.27,0,.36-.12.36-.38,0-.07,0-.31,0-.47a1.92,1.92,0,0,0,1.82-2c0-1.16-.83-1.62-1.85-1.94V8.52a1.54,1.54,0,0,1,.85.4c.17.14.22.2.39.2h0a.5.5,0,0,0,.42-.47.72.72,0,0,0-.34-.51,2.74,2.74,0,0,0-1.33-.48v-.4c0-.25-.1-.38-.35-.38Zm-.34,3.61c-.46-.16-.86-.39-.87-1a1,1,0,0,1,.86-1v2Zm.74,3.29,0-2.11c.49.18.92.43.92,1a1,1,0,0,1-.9,1.09Z"/></svg>