<svg id="Layer_1" data-name="Layer 1" xmlns="http://www.w3.org/2000/svg" viewBox="0 0 16 16"><path d="M13.19,12.25l-.78.62-1.58-2L9.19,12.94l-.78-.62,1.78-2.24L8.5,7.94l.78-.62,1.55,1.95,1.49-1.88L13.1,8l-1.64,2.07ZM5.68,6.07H3.3l.52-3.36a2.27,2.27,0,0,1,1.07-1.3,3.29,3.29,0,0,1,2.65.11L7.9.59A4.14,4.14,0,0,0,4.42.53a3.26,3.26,0,0,0-1.58,2L2.29,6.07H.11v1h2L.8,15.67l1,.15L3.14,7.07H5.68Zm7.6-.85-.51.85a4.72,4.72,0,0,1,2.12,4.06,4.7,4.7,0,0,1-2.12,4.06l.51.86a5.7,5.7,0,0,0,2.61-4.92A5.68,5.68,0,0,0,13.28,5.22ZM6.57,10.13A4.7,4.7,0,0,1,8.68,6.07l-.51-.85a5.67,5.67,0,0,0-2.6,4.91,5.69,5.69,0,0,0,2.6,4.92l.51-.86A4.69,4.69,0,0,1,6.57,10.13Z"/></svg>