<svg id="Layer_1" data-name="Layer 1" xmlns="http://www.w3.org/2000/svg" viewBox="0 0 16 16"><path d="M13.5,8v4A2.81,2.81,0,0,1,11,15a2.81,2.81,0,0,1-2.5-3V4A4,4,0,0,0,6.2.26L6,.18,5.64.07A3.79,3.79,0,0,0,5,0H5a2.82,2.82,0,0,0-.65.08.81.81,0,0,0-.22.07,1.63,1.63,0,0,0-.37.13,1.9,1.9,0,0,0-.37.2L3.29.53A4.16,4.16,0,0,0,1.5,4V8h1V4.67a3,3,0,0,0,5,0V12A3.8,3.8,0,0,0,11,16a3.8,3.8,0,0,0,3.5-4V8ZM5,5a2,2,0,0,1-.84-3.81l.23-.08.16-.05A1.76,1.76,0,0,1,5,1h0a2.33,2.33,0,0,1,.38,0,1.31,1.31,0,0,1,.28.09l.08,0A2,2,0,0,1,5,5Z"/></svg>