<svg id="Layer_1" data-name="Layer 1" xmlns="http://www.w3.org/2000/svg" viewBox="0 0 16 16"><path d="M12.71,0H4V5.47H5V1h6V5h4V15H4.5v1H16V3.29ZM15,4H12V1h.29L15,3.71Z"/><path d="M4.71,12.56v-4c0-.39-.14-.53-.51-.53a.53.53,0,0,0-.55.36l-1.2,2.25L1.24,8.35A.53.53,0,0,0,.71,8C.31,8,.2,8.2.2,8.57v4c0,.31.13.4.46.4s.43-.09.43-.4V9.73h0l.78,1.45c.16.31.27.43.54.43s.37-.09.56-.43l.79-1.49h0v2.87c0,.31.1.4.42.4S4.71,12.87,4.71,12.56Z"/><path d="M7.4,12.88a2.22,2.22,0,0,0,2.36-2.43A2.15,2.15,0,0,0,7.43,8.12h-.9c-.57,0-.77.3-.77.75v3.35a.62.62,0,0,0,.7.66ZM6.73,9.12A.13.13,0,0,1,6.86,9h.62c.95,0,1.31.67,1.31,1.51S8.46,12,7.43,12H6.82c-.06,0-.09,0-.09-.11Z"/><path d="M10.52,13c.36,0,.47-.12.49-.45A2.53,2.53,0,0,1,11.9,11a2.42,2.42,0,0,1,.86,1.53c0,.34.15.45.5.45s.47-.48.47-.78c0-.64-.49-1.11-1.14-1.72a4.17,4.17,0,0,0,1.14-2.29c0-.14,0-.18-.09-.18a3.13,3.13,0,0,1-.42,0c-.32,0-.42.14-.45.37a2.79,2.79,0,0,1-.84,1.49,2.4,2.4,0,0,1-.77-1.49c0-.26-.12-.37-.46-.37s-.5.14-.5.43a3.08,3.08,0,0,0,1,1.95A3.23,3.23,0,0,0,10,12.48C10,12.79,10.13,13,10.52,13Z"/></svg>