<svg id="Layer_1" data-name="Layer 1" xmlns="http://www.w3.org/2000/svg" viewBox="0 0 16 16"><path d="M11,0A3.8,3.8,0,0,0,7.5,4v7.33a3,3,0,0,0-5,0V8h-1v4a4.14,4.14,0,0,0,1.78,3.49l.11.07a2.47,2.47,0,0,0,.36.19,2.46,2.46,0,0,0,.38.14l.21.06A2.82,2.82,0,0,0,5,16h.08a2.76,2.76,0,0,0,.57-.06L6,15.82l.21-.08A4,4,0,0,0,8.5,12V4A2.81,2.81,0,0,1,11,1a2.81,2.81,0,0,1,2.5,3V8h1V4A3.8,3.8,0,0,0,11,0ZM5,11a2,2,0,0,1,.81,3.83l-.1,0a1.34,1.34,0,0,1-.26.09A2.87,2.87,0,0,1,5,15H5a1.76,1.76,0,0,1-.46-.06l-.17,0-.22-.08A2,2,0,0,1,5,11Z"/></svg>