<svg id="Layer_1" data-name="Layer 1" xmlns="http://www.w3.org/2000/svg" viewBox="0 0 16 16"><path d="M13,4V3.5A1.5,1.5,0,0,0,11.5,2h-2A1.5,1.5,0,0,0,8,3.5V4H0V5H8v.5A1.5,1.5,0,0,0,9.5,7h2A1.5,1.5,0,0,0,13,5.5V5h3V4ZM12,5.5a.5.5,0,0,1-.5.5h-2A.5.5,0,0,1,9,5.5v-2A.5.5,0,0,1,9.5,3h2a.5.5,0,0,1,.5.5Zm-4,5A1.5,1.5,0,0,0,6.5,9h-2A1.5,1.5,0,0,0,3,10.5V11H0v1H3v.5A1.5,1.5,0,0,0,4.5,14h2A1.5,1.5,0,0,0,8,12.5V12h8V11H8Zm-1,2a.5.5,0,0,1-.5.5h-2a.5.5,0,0,1-.5-.5v-2a.5.5,0,0,1,.5-.5h2a.5.5,0,0,1,.5.5Z"/></svg>