<svg id="Layer_1" data-name="Layer 1" xmlns="http://www.w3.org/2000/svg" viewBox="0 0 16 16"><title>notifications_off</title><path d="M8,16a3,3,0,0,1-3-3H6a2.05,2.05,0,0,0,4.1,0h1A3,3,0,0,1,8,16ZM2.45,11.43a2.58,2.58,0,0,0,.6-1.64V7.51a5.1,5.1,0,0,1,.39-1.95L2.68,4.8a6.24,6.24,0,0,0-.63,2.71V9.79A1.67,1.67,0,0,1,.36,11.43H0v1H10.31l-1-1Zm3.9-8.71a.48.48,0,0,0,.33-.46,1.32,1.32,0,0,1,2.64,0,.48.48,0,0,0,.33.46A5.09,5.09,0,0,1,13,7.51V9.79a2.58,2.58,0,0,0,.6,1.64h0l1,1H16v-1h-.36A1.67,1.67,0,0,1,14,9.79V7.51A6.08,6.08,0,0,0,10.28,1.9a2.32,2.32,0,0,0-4.56,0,5.69,5.69,0,0,0-1.08.61l.72.72A4.87,4.87,0,0,1,6.35,2.72Zm9.5,12.43L.85.15l-.7.7,15,15Z"/></svg>