<svg id="Layer_1" data-name="Layer 1" xmlns="http://www.w3.org/2000/svg" viewBox="0 0 16 16"><path d="M8,16a3,3,0,0,1-3-3H6a2.05,2.05,0,1,0,4.1,0h1a3,3,0,0,1-3,3ZM2.45,11.42a2.59,2.59,0,0,0,.6-1.64V7.5a5,5,0,0,1,.39-1.95l-.76-.76A6.23,6.23,0,0,0,2.05,7.5V9.78A1.67,1.67,0,0,1,.36,11.42H0v1H10.31l-1-1Zm3.9-8.71a.47.47,0,0,0,.33-.46,1.32,1.32,0,0,1,2.64,0,.47.47,0,0,0,.33.46A5.1,5.1,0,0,1,13,7.5V9.78a2.59,2.59,0,0,0,.6,1.64h0l1,1H16v-1h-.36A1.67,1.67,0,0,1,14,9.78V7.5a6.08,6.08,0,0,0-3.72-5.61,2.32,2.32,0,0,0-4.56,0,5.76,5.76,0,0,0-1.08.61l.72.72A4.64,4.64,0,0,1,6.35,2.71Zm9.5,12.43L.85.14l-.7.7,15,15Z"/></svg>