<svg id="Layer_1" data-name="Layer 1" xmlns="http://www.w3.org/2000/svg" viewBox="0 0 16 16"><path d="M9.89,12.77h1a2.89,2.89,0,0,1-5.78,0h1a1.89,1.89,0,0,0,3.78,0Zm5.61-1.52v1H.5v-1H.84A1.55,1.55,0,0,0,2.39,9.7V7.53A5.84,5.84,0,0,1,5.83,2.16a2.2,2.2,0,0,1,4.34,0,5.84,5.84,0,0,1,3.44,5.37V9.7a1.55,1.55,0,0,0,1.55,1.55Zm-2.35,0a2.53,2.53,0,0,1-.54-1.55V7.53A4.82,4.82,0,0,0,9.53,3a.51.51,0,0,1-.33-.46,1.2,1.2,0,0,0-2.4,0A.51.51,0,0,1,6.47,3,4.82,4.82,0,0,0,3.39,7.53V9.7a2.53,2.53,0,0,1-.54,1.55Z"/></svg>