<svg id="Layer_1" data-name="Layer 1" xmlns="http://www.w3.org/2000/svg" viewBox="0 0 16 16"><path d="M1,8.13A6.94,6.94,0,0,0,2.94,13l-.73.7A8,8,0,0,1,2.44,2.38l.69.72A7,7,0,0,0,1,8.13ZM13.52,2.34l-.69.73A7,7,0,0,1,13.07,13l.72.69a8,8,0,0,0-.27-11.31ZM4.2,4.15A5.5,5.5,0,0,0,4,11.88l.73-.68a4.51,4.51,0,0,1,.18-6.33Zm7.55,0-.68.73a4.5,4.5,0,0,1,.19,6.39l.72.69A5.45,5.45,0,0,0,13.5,8.13,5.53,5.53,0,0,0,11.75,4.11Zm-.75,4a3,3,0,1,1-3-3A3,3,0,0,1,11,8.12Zm-1,0a2,2,0,1,0-2,2A2,2,0,0,0,10,8.12Z"/></svg>