<svg id="Layer_1" data-name="Layer 1" xmlns="http://www.w3.org/2000/svg" viewBox="0 0 16 16"><path d="M4.88,10.35a2,2,0,0,0-2-2.26,2,2,0,0,0-2,2.26,2,2,0,1,0,4.07,0Zm-3.17,0c0-1,.51-1.46,1.15-1.46S4,9.53,4,10.35s-.41,1.49-1.12,1.49S1.71,11.16,1.71,10.35ZM6.37,8.16a.61.61,0,0,0-.69.67v3.45c0,.28.15.37.44.37s.45-.09.45-.37V11h.6A1.43,1.43,0,0,0,8.76,9.58c0-.89-.48-1.42-1.55-1.42ZM7.86,9.59a.59.59,0,0,1-.67.65H6.57V9.05a.12.12,0,0,1,.12-.13H7.2C7.65,8.92,7.86,9.12,7.86,9.59Zm2.45.8c0,.8.33,1.45,1.19,1.45a1.41,1.41,0,0,0,.69-.2c.17-.09.24-.16.36-.16a.46.46,0,0,1,.39.42c0,.15-.07.23-.24.36a2.16,2.16,0,0,1-1.3.38,1.94,1.94,0,0,1-2-2.22,2,2,0,0,1,2.1-2.33,2.14,2.14,0,0,1,1.29.38.38.38,0,0,1,.17.3.49.49,0,0,1-.42.46.56.56,0,0,1-.31-.13,1.35,1.35,0,0,0-.75-.21C10.79,8.89,10.31,9.42,10.31,10.39ZM8.69,5.5a.5.5,0,1,1,.5-.5A.5.5,0,0,1,8.69,5.5Zm6.5-1v11a.5.5,0,0,1-.5.5h-12a.5.5,0,0,1-.5-.5V15h12V4.76L8.69,1.1,3.19,4.76V6h-1V4.5s0,0,0,0a.45.45,0,0,1,.06-.19l.05-.07.07-.08,0,0,6-4h0A.45.45,0,0,1,8.59,0h.09a.65.65,0,0,1,.2,0L9,.08H9l6,4,0,0,.07.08,0,.07a.45.45,0,0,1,.06.19S15.19,4.48,15.19,4.5Z"/></svg>