<svg id="Layer_1" data-name="Layer 1" xmlns="http://www.w3.org/2000/svg" viewBox="0 0 16 16"><path d="M10,5A.5.5,0,0,1,9,5a.5.5,0,0,1,1,0Zm6-.55a.44.44,0,0,0,0-.1.2.2,0,0,0,0-.08.22.22,0,0,0,0-.08l-.07-.07,0,0-6-4h0l-.09,0a.45.45,0,0,0-.2,0H9.4a.67.67,0,0,0-.18.07h0l-6,4,0,0a.23.23,0,0,0-.07.07.22.22,0,0,0-.05.08.2.2,0,0,0,0,.08.44.44,0,0,0,0,.1s0,0,0,0V6H4V4.77L9.5,1.1,15,4.77V15H3v.5a.5.5,0,0,0,.5.5h12a.5.5,0,0,0,.5-.5V4.5S16,4.47,16,4.45ZM3.64,13a2.21,2.21,0,0,1-2.21-2.47A2.21,2.21,0,0,1,3.64,8.05a2.18,2.18,0,0,1,2.18,2.44A2.22,2.22,0,0,1,3.64,13Zm0-.87c.77,0,1.21-.65,1.21-1.6S4.44,8.92,3.64,8.92,2.4,9.45,2.4,10.49C2.4,11.37,2.79,12.09,3.64,12.09ZM6,8.57c0,.3.1.44.41.44h1v3.55c0,.31.15.4.47.4s.5-.09.5-.4V9h1c.31,0,.38-.14.38-.44s-.07-.45-.38-.45H6.43C6.12,8.12,6,8.25,6,8.57Zm6.16.35a1.42,1.42,0,0,1,.79.23.65.65,0,0,0,.34.13.54.54,0,0,0,.46-.49.4.4,0,0,0-.19-.32,2.22,2.22,0,0,0-1.38-.42,2.2,2.2,0,0,0-2.27,2.51c0,1.47.77,2.4,2.14,2.4a2.34,2.34,0,0,0,1.41-.42c.17-.13.26-.22.26-.38a.51.51,0,0,0-.42-.46c-.14,0-.21.08-.4.18a1.48,1.48,0,0,1-.74.21c-.92,0-1.29-.7-1.29-1.56C10.89,9.48,11.41,8.92,12.18,8.92Z"/></svg>