<svg id="Layer_1" data-name="Layer 1" xmlns="http://www.w3.org/2000/svg" viewBox="0 0 16 16"><path d="M15.86.13a.5.5,0,0,0-.64-.06L5.51,6.43a.68.68,0,0,0-.12.12,2.51,2.51,0,0,0-1.87.19A3.31,3.31,0,0,0,1.9,8.83a8.48,8.48,0,0,0-.2,2.83,12,12,0,0,1,0,1.7,2.06,2.06,0,0,1-.63,1.38.37.37,0,0,1-.2.07l-.27,0a.52.52,0,0,0-.59.39.52.52,0,0,0,.35.62,1.68,1.68,0,0,0,.44.07A16.71,16.71,0,0,0,3.12,16l.8,0a5.7,5.7,0,0,0,3.9-1.22,5.8,5.8,0,0,0,1.34-2.11l.05-.12a3.4,3.4,0,0,0,.33-1.68.58.58,0,0,0,.18-.17L15.94.78A.52.52,0,0,0,15.86.13ZM2.24,15a3.56,3.56,0,0,0,.48-1.5,14.16,14.16,0,0,0,0-1.84,7.9,7.9,0,0,1,.15-2.5A2.28,2.28,0,0,1,4,7.67H4a1.55,1.55,0,0,1,1.65.12A3.14,3.14,0,0,0,4.27,9.62a7.6,7.6,0,0,0-.21,2.11c0,.26,0,.53,0,.79a3.38,3.38,0,0,1-.75,2.42l0,0C3,15,2.6,15,2.24,15Zm6-2.8-.06.13A4.81,4.81,0,0,1,7.1,14a4,4,0,0,1-2.53.88,6.23,6.23,0,0,0,.5-2.34c0-.28,0-.56,0-.84A7.28,7.28,0,0,1,5.27,9.9,1.79,1.79,0,0,1,6.53,8.56,5.75,5.75,0,0,1,7,9l.39.39a5.13,5.13,0,0,1,1.13,1.46A1.93,1.93,0,0,1,8.25,12.16Zm.94-2.57L6.61,7l1.26-.83L10,8.3Zm1.38-2.2L8.76,5.54l5-3.31Z"/></svg>