<svg id="Layer_1" data-name="Layer 1" xmlns="http://www.w3.org/2000/svg" viewBox="0 0 16 16"><path d="M15,8a6.46,6.46,0,0,1-.12,1.25H10.63a2.6,2.6,0,0,0-.84-3.11L11,3.94a.5.5,0,1,0-.88-.48L8.89,5.7a2.47,2.47,0,0,0-.67-.1A2.63,2.63,0,0,0,5.59,8.23a2.74,2.74,0,0,0,.21,1H1.12A6.46,6.46,0,0,1,1,8,7,7,0,0,1,8,1V0a8,8,0,1,0,8,8Zm-8.41.23a1.63,1.63,0,1,1,3.25,0,1.66,1.66,0,0,1-.35,1H7A1.66,1.66,0,0,1,6.59,8.23ZM8,15a7,7,0,0,1-6.62-4.75H14.62A7,7,0,0,1,8,15Zm6.57-9.48a7.08,7.08,0,0,0-1-1.78l.79-.61a8,8,0,0,1,1.14,2ZM12.12,2.34a7,7,0,0,0-1.88-1l.32-.94a7.71,7.71,0,0,1,2.15,1.11Z"/></svg>