<svg id="Layer_1" data-name="Layer 1" xmlns="http://www.w3.org/2000/svg" viewBox="0 0 16 16"><path d="M15,6.05,14,4.93,11.62,8a.5.5,0,1,1-.79-.61l2.45-3.15L12,2.81,8.8,5.16a.47.47,0,0,1-.3.1.49.49,0,0,1-.4-.21.51.51,0,0,1,.11-.7l3.11-2.27L10.26.93,11,.25l4.75,5.12ZM9,6.66a4.72,4.72,0,0,1,.3,6.65.75.75,0,0,1-.14.12l-.35.32-.37-.32L5.86,10.86,1,15.75l-.71-.7,4.9-4.9L1.88,6.88l.32-.36a.76.76,0,0,1,.14-.16A4.28,4.28,0,0,1,5.63,5.13,5.09,5.09,0,0,1,9,6.66Zm-.71.7a4.13,4.13,0,0,0-2.7-1.23,3.34,3.34,0,0,0-2.31.73l5.52,5.51A3.79,3.79,0,0,0,8.28,7.36Z"/></svg>