<svg id="Layer_1" data-name="Layer 1" xmlns="http://www.w3.org/2000/svg" viewBox="0 0 16 16"><path d="M13.56,10.65a2.43,2.43,0,0,0-2.38,1.93H3.23a2.13,2.13,0,0,1-2.22-2A2.15,2.15,0,0,1,3.25,8.5H6.57l2.29,2.29a.5.5,0,0,0,.35.15.51.51,0,0,0,.36-.15.51.51,0,0,0,0-.71L8,8.5h3.94a3.14,3.14,0,0,0,3.24-3,3.14,3.14,0,0,0-3.23-3H4.82a2.43,2.43,0,1,0,0,1h7.12a2.14,2.14,0,0,1,2.23,2,2.15,2.15,0,0,1-2.24,2H8L9.57,5.92a.5.5,0,1,0-.71-.71L6.58,7.5H3.25A3.15,3.15,0,0,0,0,10.55a3.13,3.13,0,0,0,3.22,3h8a2.44,2.44,0,1,0,2.38-2.93ZM2.44,4.35A1.44,1.44,0,1,1,3.87,2.92,1.43,1.43,0,0,1,2.44,4.35ZM13.56,14.52A1.44,1.44,0,1,1,15,13.08,1.44,1.44,0,0,1,13.56,14.52Z"/></svg>