<svg id="Layer_1" data-name="Layer 1" xmlns="http://www.w3.org/2000/svg" viewBox="0 0 16 16"><path d="M15.5,15H15V0H14V2.92H11a1.49,1.49,0,0,0-2.86,0H6.7a1.49,1.49,0,0,0-2.86,0H2V0H1V15H.5a.5.5,0,0,0,0,1h15a.5.5,0,0,0,0-1Zm-5.35-3.5a1.49,1.49,0,0,0-2.8,0H6.17a1.49,1.49,0,0,0-2.8,0H2V8.21H6.27a1.49,1.49,0,0,0,2.83,0h1a1.48,1.48,0,0,0,2.82,0h1V11.5Zm-.9.52a.5.5,0,0,1-1,0,.5.5,0,0,1,1,0Zm-4,0a.5.5,0,0,1-1,0,.5.5,0,0,1,1,0ZM7.19,7.73a.5.5,0,0,1,.5-.5.5.5,0,0,1,.5.5.51.51,0,0,1-.5.5A.5.5,0,0,1,7.19,7.73Zm3.83,0a.5.5,0,0,1,.5-.5.5.5,0,0,1,.5.5.5.5,0,0,1-.5.5A.51.51,0,0,1,11,7.73ZM9.52,2.85a.5.5,0,0,1,.5.5.5.5,0,0,1-1,0A.5.5,0,0,1,9.52,2.85Zm-4.25,0a.5.5,0,0,1,.5.5.5.5,0,0,1-1,0A.5.5,0,0,1,5.27,2.85ZM3.88,3.92a1.5,1.5,0,0,0,2.78,0H8.13a1.5,1.5,0,0,0,2.78,0H14V7.21H12.92a1.49,1.49,0,0,0-2.8,0h-1a1.49,1.49,0,0,0-2.8,0H2V3.92ZM2,12.5H3.36a1.48,1.48,0,0,0,2.82,0H7.34a1.48,1.48,0,0,0,2.82,0H14V15H2Z"/></svg>