<svg id="Layer_1" data-name="Layer 1" xmlns="http://www.w3.org/2000/svg" viewBox="0 0 16 16"><path d="M15,14.32l-.71.71L0,.71.71,0ZM5.75,3A3.75,3.75,0,0,1,11,8.3a.52.52,0,0,0,.06.71.57.57,0,0,0,.33.11.49.49,0,0,0,.38-.18,4.75,4.75,0,0,0-4.2-7.76,4.67,4.67,0,0,0-2.44,1,.49.49,0,0,0-.07.7A.49.49,0,0,0,5.75,3Zm4.12,9.76a.5.5,0,0,0-.5.5v.9H6.87V12.27H8.5v-1H6.87V11a2.63,2.63,0,0,0-1-2.09A3.72,3.72,0,0,1,4.52,6.94a.5.5,0,1,0-1,.28A4.78,4.78,0,0,0,5.22,9.65,1.64,1.64,0,0,1,5.87,11v3.34a.86.86,0,0,0,.86.86H9.51a.87.87,0,0,0,.86-.86v-1A.5.5,0,0,0,9.87,12.75ZM7.13,5.51a1,1,0,1,0,1-1A1,1,0,0,0,7.13,5.51Z"/></svg>