<svg id="Layer_1" data-name="Layer 1" xmlns="http://www.w3.org/2000/svg" viewBox="0 0 16 16"><path d="M14,7.23h2a7.93,7.93,0,0,0-1.59-4.06L12.92,4.62l-.71-.7,1.51-1.51a8,8,0,0,0-11.43,0l1.5,1.52-.71.7L1.64,3.16A7.94,7.94,0,0,0,0,7.23H2v1H0a8,8,0,0,0,16,0H14ZM2.38,12.74,1.67,12l1.41-1.41.71.71Zm8-3.45a1.44,1.44,0,0,0-.57,1.11v2.78a.73.73,0,0,1-.72.72H6.78a.72.72,0,0,1-.72-.72V10.39a1.38,1.38,0,0,0-.54-1.08A3.94,3.94,0,0,1,4,5.61a4,4,0,0,1,7.89.57A3.94,3.94,0,0,1,10.39,9.29ZM14.33,12l-.71.71-1.41-1.41.71-.71ZM6.9,11.5H9v1.56H6.9Z"/></svg>