<svg id="Layer_1" data-name="Layer 1" xmlns="http://www.w3.org/2000/svg" viewBox="0 0 16 16"><path d="M16,7.23a8.84,8.84,0,0,0-.17-1.05s0-.11,0-.16a7,7,0,0,0-.29-.92s0,0,0,0a8.06,8.06,0,0,0-1.06-1.88h0a7.89,7.89,0,0,0-.65-.76h0A8.08,8.08,0,0,0,11.19.66h0A6.44,6.44,0,0,0,10.49.4l-.08,0C10.2.3,10,.25,9.77.2l-.14,0A6.17,6.17,0,0,0,9,.07L8.82,0A7.38,7.38,0,0,0,8,0a7.38,7.38,0,0,0-.82,0L7,.07c-.21,0-.41,0-.62.1l-.15,0A4.34,4.34,0,0,0,5.6.37L5.5.4c-.22.08-.44.15-.64.24l-.05,0A5,5,0,0,0,4.15,1h0a6,6,0,0,0-.86.56L3,1.76a6.17,6.17,0,0,0-.54.48l-.19.16h0a9.32,9.32,0,0,0-.66.75h0A7.75,7.75,0,0,0,.57,5a.08.08,0,0,1,0,0C.44,5.39.34,5.7.26,6a1,1,0,0,0,0,.17A7.19,7.19,0,0,0,0,7.23,6.51,6.51,0,0,0,0,8a7.94,7.94,0,0,0,1.5,4.65c.13.18.26.36.41.53v0a6.14,6.14,0,0,0,.5.52l.05.06c.17.15.33.3.51.44l.1.08.5.37.17.1.48.29.23.11c.15.07.3.15.46.21l.3.12.43.15.38.1.37.09.5.08.29,0A7.32,7.32,0,0,0,8,16a7.32,7.32,0,0,0,.81,0l.29,0,.5-.08.37-.09.38-.1.43-.15.3-.12c.16-.06.31-.14.46-.21l.23-.11.48-.29.17-.1.5-.37.1-.08c.18-.14.34-.29.51-.44l.05-.06a6.14,6.14,0,0,0,.5-.52v0c.15-.17.28-.35.41-.53A7.94,7.94,0,0,0,16,8,6.51,6.51,0,0,0,16,7.23ZM10.39,9.29a1.44,1.44,0,0,0-.57,1.11v2.78a.73.73,0,0,1-.72.72H6.78a.72.72,0,0,1-.72-.72V10.39a1.38,1.38,0,0,0-.54-1.08A3.94,3.94,0,0,1,4,5.61a4,4,0,0,1,7.89.57A3.94,3.94,0,0,1,10.39,9.29ZM6.9,11.5H9v1.56H6.9ZM8.39,9.66h-1v-5h1Z"/></svg>