<svg id="Layer_1" data-name="Layer 1" xmlns="http://www.w3.org/2000/svg" viewBox="0 0 16 16"><path d="M11.16,2.39A4.75,4.75,0,1,0,5.1,9.7,1.64,1.64,0,0,1,5.75,11v3.34a.87.87,0,0,0,.86.86H9.39a.87.87,0,0,0,.86-.86V11a1.69,1.69,0,0,1,.69-1.32,4.75,4.75,0,0,0,.22-7.28ZM9.25,14.19H6.75V12.32h2.5Zm1.07-5.31A2.71,2.71,0,0,0,9.25,11v.33H6.75V11a2.62,2.62,0,0,0-1-2.08,3.75,3.75,0,1,1,4.61,0ZM2,6.54H0v-1H2ZM3.08,8.93l.71.71L2.38,11.05l-.71-.71Zm0-6L1.67,1.52,2.38.81,3.79,2.22ZM16,5.54v1H14v-1ZM12.92,8.93l1.41,1.41-.71.71L12.21,9.64Zm0-6-.71-.71L13.62.81l.71.71Z"/></svg>