<svg id="Layer_1" data-name="Layer 1" xmlns="http://www.w3.org/2000/svg" viewBox="0 0 16 16"><path d="M5.53,2.92a.5.5,0,0,1,.07-.7,4.71,4.71,0,0,1,2.45-1,4.74,4.74,0,0,1,4.2,7.76.51.51,0,0,1-.39.18A.54.54,0,0,1,11.54,9a.51.51,0,0,1-.06-.71A3.75,3.75,0,0,0,6.24,3,.51.51,0,0,1,5.53,2.92Zm4.83,9.83a.5.5,0,0,0-.5.5v.9H7.36V12.27H9v-1H7.36V11a2.63,2.63,0,0,0-1-2.09A3.74,3.74,0,0,1,5,6.94a.5.5,0,0,0-.62-.34A.51.51,0,0,0,4,7.22,4.74,4.74,0,0,0,5.71,9.65,1.64,1.64,0,0,1,6.36,11v3.34a.86.86,0,0,0,.86.86H10a.87.87,0,0,0,.86-.86v-1A.51.51,0,0,0,10.36,12.75ZM1.19,0,.49.71,14.81,15l.7-.71Z"/></svg>