<svg id="Layer_1" data-name="Layer 1" xmlns="http://www.w3.org/2000/svg" viewBox="0 0 16 16"><path d="M7.91,13.53H5.37A4.42,4.42,0,0,1,1.1,9a4.44,4.44,0,0,1,3.73-4.5v3A.52.52,0,0,0,5.35,8h10a.52.52,0,0,0,.52-.52v-7A.52.52,0,0,0,15.31,0h-10a.52.52,0,0,0-.52.52V3.46A5.44,5.44,0,0,0,.1,9a5.42,5.42,0,0,0,5.27,5.56H7.91V16h6V12h-6ZM5.83,1h9V7h-9ZM8.91,13h4v2h-4Z"/><rect x="14.9" y="12.49" width="1" height="3"/><path d="M12.49,3.05h-1a.5.5,0,0,0-.5.5.5.5,0,0,0,.5.5h1a.5.5,0,0,0,.5-.5A.51.51,0,0,0,12.49,3.05Z"/></svg>