<svg id="Layer_1" data-name="Layer 1" xmlns="http://www.w3.org/2000/svg" viewBox="0 0 16 16"><path d="M1,11.47,3,12.67l-.5.86L.21,12.19A.5.5,0,0,1,0,11.76V4.25a.5.5,0,0,1,.25-.43L6.71.07a.5.5,0,0,1,.5,0l4.52,2.61-.5.86L7,1.08,1,4.54ZM15.69,7.15,13.88,5.34a1.2,1.2,0,0,0-1.65,0L10,7.61a1.18,1.18,0,0,0,0,1.65l.71-.71a.17.17,0,0,1,0-.23l2.27-2.27a.18.18,0,0,1,.24,0L15,7.86a.17.17,0,0,1,0,.23l-2.27,2.27a.16.16,0,0,1-.24,0l-.7.71a1.13,1.13,0,0,0,.82.34,1.16,1.16,0,0,0,.83-.34L15.69,8.8A1.16,1.16,0,0,0,15.69,7.15Zm-5.29,5.3a.17.17,0,0,1,0,.11.17.17,0,0,1,0,.12L8.13,15C8.05,15,8,15,7.89,15L6.08,13.14A.16.16,0,0,1,6,13a.15.15,0,0,1,0-.11l2.27-2.27a.18.18,0,0,1,.24,0l.71-.71a1.2,1.2,0,0,0-1.65,0L5.38,12.2a1.17,1.17,0,0,0,0,1.65l1.81,1.81A1.15,1.15,0,0,0,8,16a1.17,1.17,0,0,0,.83-.34l2.27-2.27a1.17,1.17,0,0,0,0-1.65Zm-1.8.7,4.58-4.59-.7-.71L7.89,12.44Z"/></svg>