<svg id="Layer_1" data-name="Layer 1" xmlns="http://www.w3.org/2000/svg" viewBox="0 0 16 16"><path d="M3.75,8.5A3.75,3.75,0,1,0,7.5,12.25,3.75,3.75,0,0,0,3.75,8.5Zm0,6.5A2.75,2.75,0,1,1,6.5,12.25,2.75,2.75,0,0,1,3.75,15Zm8.5-7.5A3.75,3.75,0,1,0,8.5,3.75,3.75,3.75,0,0,0,12.25,7.5Zm0-6.5A2.75,2.75,0,1,1,9.5,3.75,2.75,2.75,0,0,1,12.25,1Zm0,7.5A3.75,3.75,0,1,0,16,12.25,3.75,3.75,0,0,0,12.25,8.5Zm0,6.5A2.75,2.75,0,1,1,15,12.25,2.75,2.75,0,0,1,12.25,15ZM7.63.65a.51.51,0,0,1,0,.71L3.43,5.54,1.81,3.8a.5.5,0,0,1,0-.71.48.48,0,0,1,.7,0l.91,1L6.92.65A.5.5,0,0,1,7.63.65ZM7.48,3.34c0,.13,0,.27,0,.41A3.76,3.76,0,1,1,5.26.32l-.41.91A2.78,2.78,0,0,0,3.75,1,2.75,2.75,0,1,0,6.5,3.75c0-.1,0-.2,0-.3Z"/></svg>