<svg id="Layer_1" data-name="Layer 1" xmlns="http://www.w3.org/2000/svg" viewBox="0 0 16 16"><path d="M13.43,15H1.85V2H4.21V1H1.35a.5.5,0,0,0-.5.5v14a.5.5,0,0,0,.5.5H13.93a.5.5,0,0,0,.5-.5V11.75h-1Z"/><path d="M13.43,5.76h1V1.47a.5.5,0,0,0-.5-.5H11.56V2h1.87Z"/><path d="M5.71,3.42h4.35a.5.5,0,0,0,.5-.5V.5a.5.5,0,0,0-.5-.5H5.71a.5.5,0,0,0-.5.5V2.92A.5.5,0,0,0,5.71,3.42ZM6.21,1H9.56V2.42H6.21Z"/><path d="M13.38,6.78a1.46,1.46,0,0,0-2.75,0H6.44v1h4.19a1.46,1.46,0,0,0,2.75,0h1.77v-1ZM12,7.75a.47.47,0,1,1,.47-.47A.47.47,0,0,1,12,7.75Z"/><path d="M9.58,8.78a1.46,1.46,0,0,0-1.37,1H6.44v1H8.21a1.46,1.46,0,0,0,2.75,0h4.19v-1H11A1.48,1.48,0,0,0,9.58,8.78Zm0,1.94a.47.47,0,1,1,.47-.47A.47.47,0,0,1,9.58,10.72Z"/></svg>