<svg id="Layer_1" data-name="Layer 1" xmlns="http://www.w3.org/2000/svg" viewBox="0 0 16 16"><path d="M0,16H7V9H0Zm1-6H6v5H1Z"/><polygon points="13 15 13 14 12 14 12 13 11 13 11 14 11 15 12 15 12 16 16 16 16 15 16 14 15 14 15 15 13 15"/><path d="M2,14H5V11H2Zm1-2H4v1H3Z"/><path d="M9,0V7h7V0Zm6,6H10V1h5Z"/><polygon points="14 9 14 10 15 10 15 12 13 12 13 11 13 10 13 9 9 9 9 16 10 16 11 16 11 15 10 15 10 12 12 12 12 13 14 13 14 14 15 14 15 13 16 13 16 9 15 9 14 9"/><path d="M0,7H7V0H0ZM1,1H6V6H1Z"/><path d="M14,2H11V5h3ZM13,4H12V3h1Z"/><path d="M2,5H5V2H2ZM3,3H4V4H3Z"/></svg>