<svg id="Layer_1" data-name="Layer 1" xmlns="http://www.w3.org/2000/svg" viewBox="0 0 16 16"><path d="M11.16,11A3,3,0,0,0,13.7,8c0-1.61-1-3.1-3.73-3.1H7.14c-.21,0-.29.08-.29.28v10c0,.21.08.29.29.29h.74c.2,0,.28-.08.28-.29v-4H9.77a10.76,10.76,0,0,1,2.92,4.05.37.37,0,0,0,.4.27H14c.19,0,.26-.09.18-.27A11.46,11.46,0,0,0,11.16,11ZM10,10.09H8.16V6H10c1.76,0,2.32.94,2.32,2.06S11.78,10.09,10,10.09Zm5.49-4.31h-1C14.51,3.42,11.59,1.5,8,1.5S1.49,3.42,1.49,5.78c0,1.72,1.56,3.27,4,3.94l-.27,1C2.34,9.88.49,8,.49,5.78.49,2.87,3.86.5,8,.5S15.51,2.87,15.51,5.78Z" fill="#231f20"/></svg>