<svg id="Layer_1" data-name="Layer 1" xmlns="http://www.w3.org/2000/svg" xmlns:xlink="http://www.w3.org/1999/xlink" viewBox="0 0 16 16"><defs><clipPath id="clip-path"><rect width="16" height="16" fill="none"/></clipPath></defs><g clip-path="url(#clip-path)"><polygon points="15.29 5.29 10.86 5.29 10.86 4.29 14.29 4.29 14.29 0.86 15.29 0.86 15.29 5.29"/><path d="M1,8H0A8,8,0,0,1,15.1,4.31l-.89.46A7,7,0,0,0,1,8Z"/><polygon points="1.71 15.14 0.71 15.14 0.71 10.71 5.14 10.71 5.14 11.71 1.71 11.71 1.71 15.14"/><path d="M8,16A8,8,0,0,1,.9,11.69l.89-.46A7,7,0,0,0,15,8h1A8,8,0,0,1,8,16Z"/></g></svg>