<svg id="Layer_1" data-name="Layer 1" xmlns="http://www.w3.org/2000/svg" viewBox="0 0 16 16"><path d="M5.35,10.4a2.9,2.9,0,0,0-1.85-1A4.5,4.5,0,0,1,5.81,5.6,2.93,2.93,0,0,0,8,6.59a2.9,2.9,0,0,0,2.17-1,4.42,4.42,0,0,1,1.88,2l.9-.44a5.46,5.46,0,0,0-2.24-2.37,3,3,0,0,0,.22-1.11,2.94,2.94,0,1,0-5.87,0,2.88,2.88,0,0,0,.22,1.1A5.45,5.45,0,0,0,2.5,9.49a2.86,2.86,0,0,0-1.3.65,2.94,2.94,0,0,0,2,5.14,2.89,2.89,0,0,0,1.94-.74,2.29,2.29,0,0,0,.21-.23A5.54,5.54,0,0,0,8,15V14a4.48,4.48,0,0,1-2.16-.56A2.94,2.94,0,0,0,5.35,10.4ZM8,1.72A1.94,1.94,0,1,1,6.06,3.66,1.94,1.94,0,0,1,8,1.72ZM4.43,13.79a1.93,1.93,0,1,1-1.28-3.38,1.93,1.93,0,0,1,1.28,3.38ZM16,13a3,3,0,1,1-3-3A3,3,0,0,1,16,13Z"/></svg>