<svg id="Layer_1" data-name="Layer 1" xmlns="http://www.w3.org/2000/svg" viewBox="0 0 16 16"><path d="M15.52,15h-.07a1.3,1.3,0,0,1-1-.4,4.5,4.5,0,0,1-.73-2.83c0-5.11-1.42-9-3.78-10.34a3.36,3.36,0,0,0-3.51,0C4.08,2.79,2.67,6.66,2.67,11.81A4.37,4.37,0,0,1,2,14.58,1.3,1.3,0,0,1,1,15V.5A.5.5,0,0,0,.48,0,.51.51,0,0,0,0,.5V16H15.52a.51.51,0,0,0,.5-.5A.5.5,0,0,0,15.52,15ZM6.94,2.29a2.41,2.41,0,0,1,2.51,0c1.58.92,3.28,3.89,3.28,9.46A5.86,5.86,0,0,0,13.52,15H2.89a5.88,5.88,0,0,0,.78-3.23C3.67,6.18,5.36,3.21,6.94,2.29Z"/></svg>