<svg id="Layer_1" data-name="Layer 1" xmlns="http://www.w3.org/2000/svg" viewBox="0 0 16 16"><path d="M9.46,4.25H4.21v7.5h7.5V6L9.92,4.25Zm-2.2,1h1.2V6.6H7.26Zm3.45,5.5H5.21V5.25h1V7.6h3.2V5.25h0l1.21,1.21ZM16,7.9v.2c0,.2-.08.28-.27.28-.85,0-1.07.84-1.07,2.29v1.46a3,3,0,0,1-.56,2.08,2,2,0,0,1-1.53.5h-.06c-.21,0-.29-.08-.29-.29v-.19c0-.21.08-.29.29-.29a.91.91,0,0,0,.8-.32,2.29,2.29,0,0,0,.26-1.38V10.83a5.12,5.12,0,0,1,.33-2.11A2,2,0,0,1,14.53,8a2,2,0,0,1-.63-.72,5.08,5.08,0,0,1-.33-2.11V3.76a2.29,2.29,0,0,0-.26-1.38.91.91,0,0,0-.8-.32c-.21,0-.29-.08-.29-.29V1.58c0-.21.08-.29.29-.29h.06a2,2,0,0,1,1.53.5,3,3,0,0,1,.56,2.08V5.33c0,1.45.22,2.29,1.07,2.29C15.92,7.62,16,7.7,16,7.9ZM3.78,1.58v.19c0,.21-.08.29-.29.29a.91.91,0,0,0-.8.32,2.29,2.29,0,0,0-.26,1.38V5.17A5.08,5.08,0,0,1,2.1,7.28,2,2,0,0,1,1.47,8a2,2,0,0,1,.63.72,5.12,5.12,0,0,1,.33,2.11v1.41a2.29,2.29,0,0,0,.26,1.38.91.91,0,0,0,.8.32c.21,0,.29.08.29.29v.19c0,.21-.08.29-.29.29H3.43a2,2,0,0,1-1.53-.5,3,3,0,0,1-.56-2.08V10.67c0-1.45-.22-2.29-1.07-2.29C.08,8.38,0,8.3,0,8.1V7.9c0-.2.08-.28.27-.28.85,0,1.07-.84,1.07-2.29V3.87A3,3,0,0,1,1.9,1.79a2,2,0,0,1,1.53-.5h.06C3.7,1.29,3.78,1.37,3.78,1.58Z"/></svg>