<svg id="Layer_1" data-name="Layer 1" xmlns="http://www.w3.org/2000/svg" viewBox="0 0 16 16"><path d="M8,5a3,3,0,1,0,3,3A3,3,0,0,0,8,5Zm0,5a2,2,0,1,1,2-2A2,2,0,0,1,8,10Zm7.56-3.65-1.64-.2a6.18,6.18,0,0,0-.42-1l1-1.3a.51.51,0,0,0,0-.66L12.82,1.51a.49.49,0,0,0-.64,0l-1.3,1a7.21,7.21,0,0,0-1-.43L9.65.44A.5.5,0,0,0,9.16,0H6.84a.5.5,0,0,0-.49.44l-.2,1.63a7.21,7.21,0,0,0-1,.43l-1.3-1a.51.51,0,0,0-.66,0L1.52,3.16a.51.51,0,0,0,0,.66l1,1.3a7.21,7.21,0,0,0-.43,1l-1.63.2A.5.5,0,0,0,0,6.84V9.16a.5.5,0,0,0,.44.49l1.63.2a7.21,7.21,0,0,0,.43,1l-1,1.3a.51.51,0,0,0,0,.66l1.64,1.63a.49.49,0,0,0,.66,0l1.3-1a6.18,6.18,0,0,0,1,.42l.2,1.64a.5.5,0,0,0,.49.44H9.16a.5.5,0,0,0,.49-.44l.2-1.64a6.18,6.18,0,0,0,1-.42l1.3,1a.49.49,0,0,0,.66,0l1.62-1.62a.5.5,0,0,0,.06-.67l-1-1.3a6.18,6.18,0,0,0,.42-1l1.64-.2A.5.5,0,0,0,16,9.16V6.84A.5.5,0,0,0,15.56,6.35ZM15,8.71l-1.53.19a.49.49,0,0,0-.42.37,5.05,5.05,0,0,1-.58,1.4.48.48,0,0,0,0,.56l.94,1.21-1,1-1.21-.94a.48.48,0,0,0-.56,0,5.38,5.38,0,0,1-1.4.58.5.5,0,0,0-.37.42L8.71,15H7.29L7.1,13.47a.5.5,0,0,0-.37-.42,5.38,5.38,0,0,1-1.4-.58.48.48,0,0,0-.56,0l-1.21.94-1-1,1-1.21a.5.5,0,0,0,0-.56A5.05,5.05,0,0,1,3,9.27a.49.49,0,0,0-.42-.37L1,8.71V7.29L2.53,7.1A.51.51,0,0,0,3,6.72a5.12,5.12,0,0,1,.58-1.39.5.5,0,0,0,0-.56l-1-1.22,1-1,1.21,1a.5.5,0,0,0,.56,0A5.05,5.05,0,0,1,6.73,3a.5.5,0,0,0,.37-.42L7.29,1H8.71L8.9,2.53A.5.5,0,0,0,9.27,3a5.05,5.05,0,0,1,1.4.58.5.5,0,0,0,.56,0l1.21-1,1,1-1,1.22a.48.48,0,0,0,0,.56,5.12,5.12,0,0,1,.58,1.39.51.51,0,0,0,.42.38L15,7.29Z"/></svg>