<svg id="Layer_1" data-name="Layer 1" xmlns="http://www.w3.org/2000/svg" viewBox="0 0 16 16"><path d="M11.29,10.6a1.9,1.9,0,1,0,1.9,1.9A1.9,1.9,0,0,0,11.29,10.6Zm0,2.8a.9.9,0,1,1,.9-.9A.9.9,0,0,1,11.29,13.4Zm4.62-1.1A5.17,5.17,0,0,0,11.29,9a5.17,5.17,0,0,0-4.62,3.3l-.09.2.09.2A5.17,5.17,0,0,0,11.29,16a5.17,5.17,0,0,0,4.62-3.3l.09-.2ZM11.29,15a4.14,4.14,0,0,1-3.61-2.5A4.14,4.14,0,0,1,11.29,10a4.14,4.14,0,0,1,3.61,2.5A4.14,4.14,0,0,1,11.29,15ZM9.57,8.27l.57-.82.55.38-.59.81Zm-3-.65a3,3,0,0,0,3-3V3a3,3,0,0,0-6,0V4.6A3,3,0,0,0,6.56,7.62ZM4.54,3a2,2,0,0,1,4,0V4.6a2,2,0,0,1-4,0Zm1,12,1.05,1H.5a.5.5,0,0,1-.5-.5V9.78a.48.48,0,0,1,.22-.41L3,7.45l.57.82L1,10v5Z"/></svg>