<svg id="Layer_1" data-name="Layer 1" xmlns="http://www.w3.org/2000/svg" viewBox="0 0 16 16"><path d="M16,3.78,14.82,3h0l-1-.67L10.51,0,9.94.87l.8.54L8.13,2.75a1.14,1.14,0,0,0-.62.94L7.15,9.91a.68.68,0,0,0,.66.71.72.72,0,0,0,.28-.07l5.69-2.66A1.15,1.15,0,0,0,14.43,7l.28-2.86.72.49Zm-2.56,3.1a.11.11,0,0,1-.07.1L9.09,9l2.63-3.89-.82-.56L8.23,8.46l.28-4.71a.12.12,0,0,1,.07-.11l3.1-1.59,2.09,1.42ZM5.59,16a.8.8,0,0,1-.49-.16c-.6-.44-.45-1.6-.21-2.5s0-1,0-1C4.36,12.07,2,13.87.78,15.1L0,14.43s3.69-3.76,5.26-3c.89.42.65,1.7.58,2.12a4.18,4.18,0,0,0-.17,1.41l.11-.07a6.9,6.9,0,0,0,1.06-.81c.42-.36.76-.65,1.19-.54a1.08,1.08,0,0,1,.66.78c.14.4.33.51.39.51s.23-.17.32-.61l1,.2c-.18.84-.64,1.36-1.23,1.4a1.48,1.48,0,0,1-1.4-1.17v0l-.24.21a9.78,9.78,0,0,1-1.19.9A1.43,1.43,0,0,1,5.59,16Z"/></svg>