<svg id="Layer_1" data-name="Layer 1" xmlns="http://www.w3.org/2000/svg" viewBox="0 0 16 16"><path d="M11.59.08a.8.8,0,0,0-.82.07L5,4v8.08l5.7,3.79a.77.77,0,0,0,.48.16.9.9,0,0,0,.36-.08.82.82,0,0,0,.45-.74l0-14.35A.84.84,0,0,0,11.59.08ZM11,14.84,6,11.51v-7l5-3.33ZM0,4.83v6.34A.81.81,0,0,0,.79,12H4V4H.79A.81.81,0,0,0,0,4.83ZM1,5H3v6H1ZM12.63,9.47a1.77,1.77,0,0,0,.42-1.15,1.75,1.75,0,0,0-.47-1.2l.74-.68a2.81,2.81,0,0,1,.73,1.88,2.76,2.76,0,0,1-.66,1.8ZM16,8.54A5,5,0,0,1,13.25,13l-.45-.9a4,4,0,0,0,0-7.08l.45-.89A4.92,4.92,0,0,1,16,8.54Z"/></svg>