<svg id="Layer_1" data-name="Layer 1" xmlns="http://www.w3.org/2000/svg" viewBox="0 0 16 16"><path d="M4.47,3.65a.52.52,0,0,1-.4-.21.51.51,0,0,1,.11-.7,6.74,6.74,0,0,1,1.68-.88.51.51,0,0,1,.64.31.5.5,0,0,1-.31.63,5.36,5.36,0,0,0-1.42.75A.54.54,0,0,1,4.47,3.65ZM2.15,6.57a.45.45,0,0,0,.16,0,.49.49,0,0,0,.47-.34,6.07,6.07,0,0,1,.65-1.33.5.5,0,0,0-.13-.69.51.51,0,0,0-.7.14,7.08,7.08,0,0,0-.77,1.56A.5.5,0,0,0,2.15,6.57ZM2.5,8a.5.5,0,0,0-1,0,6.46,6.46,0,0,0,1.13,3.66.51.51,0,0,0,.69.13.5.5,0,0,0,.13-.7A5.47,5.47,0,0,1,2.5,8ZM8,13.5a5.43,5.43,0,0,1-2.84-.79.5.5,0,0,0-.69.17.49.49,0,0,0,.17.68A6.41,6.41,0,0,0,8,14.5a.5.5,0,0,0,0-1Zm5.45-2.94a.5.5,0,0,0-.68.18,5.5,5.5,0,0,1-2.17,2.11.5.5,0,0,0,.24.94.53.53,0,0,0,.24-.06,6.56,6.56,0,0,0,2.55-2.49A.49.49,0,0,0,13.45,10.56ZM8,1.5a.5.5,0,0,0,0,1A5.51,5.51,0,0,1,13.5,8a.5.5,0,0,0,1,0A6.51,6.51,0,0,0,8,1.5Z"/></svg>