<svg id="Layer_1" data-name="Layer 1" xmlns="http://www.w3.org/2000/svg" viewBox="0 0 16 16"><path d="M11.45,5.94A.5.5,0,0,0,11,5.66H8.61L10.88.71a.51.51,0,0,0,0-.48A.52.52,0,0,0,10.43,0H4.66a.51.51,0,0,0-.49.38L2.26,8.25a.51.51,0,0,0,.1.43.49.49,0,0,0,.39.19H4.62l-1.78,6.5a.5.5,0,0,0,.25.57.53.53,0,0,0,.23.06.5.5,0,0,0,.39-.18l7.68-9.35A.51.51,0,0,0,11.45,5.94Zm-7,7.43L5.76,8.5a.5.5,0,0,0-.48-.63H3.39L5.05,1h4.6L7.38,6a.5.5,0,0,0,.45.71H9.94ZM13.5,11A2.5,2.5,0,1,0,16,13.5,2.5,2.5,0,0,0,13.5,11Zm0,4A1.5,1.5,0,1,1,15,13.5,1.5,1.5,0,0,1,13.5,15Z"/></svg>