<svg id="Layer_1" data-name="Layer 1" xmlns="http://www.w3.org/2000/svg" viewBox="0 0 16 16"><path d="M16,0v7.6H15V1H8.53v3.5h-4v4H1V15H6.5v1H0V7.46h3.5v-4h4V0ZM11.72,11.5c-1-.21-1.83-.39-1.83-1.21,0-.47.4-1,1.36-1a2.3,2.3,0,0,1,1.43.45,1,1,0,0,0,.54.21.67.67,0,0,0,.61-.69c0-.21-.13-.42-.45-.65a3.54,3.54,0,0,0-2-.58c-1.63,0-2.83.88-2.83,2.34s1.11,2,2.58,2.31c.93.21,1.51.43,1.51,1.05s-.58,1-1.41,1a3.25,3.25,0,0,1-1.68-.54A.82.82,0,0,0,9,14a.71.71,0,0,0-.6.69.83.83,0,0,0,.39.64,4,4,0,0,0,2.35.68c1.7,0,2.82-1,2.82-2.33S13,11.79,11.72,11.5Z"/></svg>