<svg id="Layer_1" data-name="Layer 1" xmlns="http://www.w3.org/2000/svg" viewBox="0 0 16 16"><path d="M2.85,12.33.15,9.63a.5.5,0,0,1,0-.71h0L8.92.15A.47.47,0,0,1,9.27,0H15.5a.5.5,0,0,1,.5.5V6.14H15V1H9.48L1.21,9.27l2.35,2.35Zm9.27-8.95a.5.5,0,0,0,0,1,.5.5,0,0,0,0-1Zm3.7,8.6-.09.21A5.93,5.93,0,0,1,10.42,16a6,6,0,0,1-5.31-3.79L5,12l.09-.2A6,6,0,0,1,10.42,8a6,6,0,0,1,5.31,3.8Zm-1.1,0a4.93,4.93,0,0,0-4.3-3,4.93,4.93,0,0,0-4.3,3,4.9,4.9,0,0,0,4.3,3,4.9,4.9,0,0,0,4.3-3Zm-4.35,1a1,1,0,1,0-1-1,1,1,0,0,0,1,1h0Z"/></svg>