<svg id="Layer_1" data-name="Layer 1" xmlns="http://www.w3.org/2000/svg" viewBox="0 0 16 16"><path d="M7.8,12.85a.48.48,0,0,1,0,.7l-.8.8a.48.48,0,0,1-.7,0l-6-6a.48.48,0,0,1,0-.7l6-6h0a.46.46,0,0,1,.15-.09.48.48,0,0,1,.18,0h6a.5.5,0,0,1,.5.5V4.7a.5.5,0,1,1-1,0V2.5H6.86L1.36,8l5.29,5.29.45-.44A.48.48,0,0,1,7.8,12.85ZM9.05,5.2a.5.5,0,0,0,1,0,.54.54,0,0,0-.5-.5A.64.64,0,0,0,9.05,5.2Zm5.9,6c-.1.2-.2.5-.3.7l.6.7-.4.4-.4.4-.7-.6a4.88,4.88,0,0,1-.7.3L13,14h-1.1l-.1-.9c-.2-.1-.5-.2-.7-.3l-.7.6L10,13l-.5-.4.6-.7a4.88,4.88,0,0,1-.3-.7l-.9-.1V10l1-.1a1.45,1.45,0,0,1,.2-.7l-.5-.8L10,8l.4-.4.7.6a4.88,4.88,0,0,1,.7-.3l.1-.9H13l.1.9c.2.1.5.2.7.3l.7-.6.4.4.4.5-.6.7a4.88,4.88,0,0,1,.3.7l.9.1v1.1Zm-.9-.7a1.7,1.7,0,1,0-1.7,1.7A1.58,1.58,0,0,0,14.05,10.5Z"/></svg>