<svg id="Layer_1" data-name="Layer 1" xmlns="http://www.w3.org/2000/svg" viewBox="0 0 16 16"><path d="M8.66,4.5a.5.5,0,1,1-.5.5.5.5,0,0,1,.5-.5ZM3.91,8.16H1.22c-.29,0-.38.11-.38.4S.93,9,1.22,9h.89v3.3c0,.29.13.38.43.38s.46-.09.46-.38V9h.91c.3,0,.36-.13.36-.41s-.06-.4-.36-.4Zm2.16-.07a1.3,1.3,0,0,0-1.46,1.3c0,.77.49,1.08,1.24,1.32.46.15.74.28.74.62s-.17.52-.62.52a1.29,1.29,0,0,1-.67-.2A.73.73,0,0,0,5,11.53a.47.47,0,0,0-.4.47.38.38,0,0,0,.2.32,2.12,2.12,0,0,0,1.19.32C7,12.64,7.48,12,7.48,11.3S7,10.16,6.13,9.9c-.4-.12-.62-.25-.62-.56s.2-.45.57-.45a1.26,1.26,0,0,1,.61.16A.76.76,0,0,0,7,9.16a.45.45,0,0,0,.39-.47.38.38,0,0,0-.25-.35,2.33,2.33,0,0,0-1.08-.25ZM8.66,0H8.57a.44.44,0,0,0-.19.07h0l-6,4,0,0-.07.08,0,.07a.45.45,0,0,0-.06.19s0,0,0,0V6h1V4.76L8.66,1.1l5.5,3.66V15h-12v.5a.5.5,0,0,0,.5.5h12a.5.5,0,0,0,.5-.5V4.5s0,0,0,0a.36.36,0,0,0,0-.1l0-.09L15,4.19,15,4.11l0,0-6-4h0L8.85,0a.65.65,0,0,0-.19,0Z"/></svg>