<svg id="Layer_1" data-name="Layer 1" xmlns="http://www.w3.org/2000/svg" viewBox="0 0 16 16"><path d="M8,0a8,8,0,1,0,8,8A8,8,0,0,0,8,0Zm6.48,10.63c-1,.22-1.85.39-2.72.53A22.7,22.7,0,0,0,12,8.5h3A6.9,6.9,0,0,1,14.48,10.63ZM1,8.5H4a22.7,22.7,0,0,0,.22,2.66c-.87-.14-1.77-.31-2.72-.53A6.9,6.9,0,0,1,1,8.5Zm.49-3.13c1-.22,1.86-.4,2.72-.53A22.7,22.7,0,0,0,4,7.5H1A6.9,6.9,0,0,1,1.52,5.37ZM5.26,4.7a22.83,22.83,0,0,1,5.48,0A23.44,23.44,0,0,1,11,7.5H5A23.44,23.44,0,0,1,5.26,4.7ZM5,8.5h6a23.1,23.1,0,0,1-.25,2.79,22.83,22.83,0,0,1-5.48,0A23.1,23.1,0,0,1,5,8.5Zm7-1a22.7,22.7,0,0,0-.22-2.66c.86.13,1.76.31,2.72.53A6.9,6.9,0,0,1,15,7.5Zm1.9-3.28Q12.7,4,11.6,3.8c-.11-.64-.25-1.31-.41-2A7,7,0,0,1,13.88,4.22ZM10.06,1.31c.2.85.37,1.63.5,2.37a24.34,24.34,0,0,0-5.12,0c.13-.74.3-1.52.5-2.37a7,7,0,0,1,4.12,0Zm-5.25.47c-.16.71-.3,1.38-.41,2q-1.1.17-2.28.42A7,7,0,0,1,4.81,1.78Zm-2.69,10q1.19.26,2.28.42c.11.64.25,1.31.4,2A7.07,7.07,0,0,1,2.12,11.78Zm3.82,2.91c-.2-.85-.37-1.63-.5-2.37A24.57,24.57,0,0,0,8,12.47a24.73,24.73,0,0,0,2.56-.15c-.13.74-.3,1.52-.5,2.37a7,7,0,0,1-4.12,0Zm5.26-.47c.15-.71.29-1.38.4-2q1.1-.16,2.28-.42A7,7,0,0,1,11.2,14.22Z"/></svg>