<svg id="Layer_1" data-name="Layer 1" xmlns="http://www.w3.org/2000/svg" viewBox="0 0 16 16"><path d="M5,9.09A27.07,27.07,0,0,0,3.45,5.21c-.13-.25-.23-.37-.52-.37h0a.5.5,0,0,0-.54.33A27.51,27.51,0,0,0,.77,9.11C.56,9.76.38,10.3.24,10.84a2.09,2.09,0,0,0-.11.56c0,.23.23.36.55.36s.31-.11.37-.35c.13-.47.28-1,.48-1.62h2.7c.16.53.33,1.1.45,1.62.06.23.15.35.37.35s.55-.1.55-.39a2.14,2.14,0,0,0-.09-.46C5.38,10.36,5.19,9.76,5,9.09ZM1.8,8.91A26.76,26.76,0,0,1,2.9,6,26.25,26.25,0,0,1,4,8.91Zm7-2.41a1.55,1.55,0,0,0-1.37.75V4.6c0-.3-.18-.4-.47-.4s-.44.1-.44.4v6.76c0,.31.16.4.44.4s.47-.09.47-.38V11a1.48,1.48,0,0,0,1.4.76c1.26,0,2.09-1,2.09-2.68S10.18,6.5,8.82,6.5ZM8.69,11A1.27,1.27,0,0,1,7.45,9.55v-.8A1.26,1.26,0,0,1,8.69,7.34c.9,0,1.33.74,1.33,1.78S9.53,11,8.69,11Zm7.18-.09a.63.63,0,0,1-.27.43,2.45,2.45,0,0,1-1.56.5,2.37,2.37,0,0,1-2.31-2.66A2.36,2.36,0,0,1,14.1,6.5a2.18,2.18,0,0,1,1.61.59.43.43,0,0,1,.15.32.47.47,0,0,1-.43.45.54.54,0,0,1-.36-.17,1.64,1.64,0,0,0-1-.35c-.81,0-1.42.61-1.42,1.8S13.25,11,14.06,11a1.64,1.64,0,0,0,1-.37.57.57,0,0,1,.35-.15A.46.46,0,0,1,15.87,10.87Z" fill="#231f20"/></svg>