<svg id="Layer_1" data-name="Layer 1" xmlns="http://www.w3.org/2000/svg" viewBox="0 0 16 16"><path d="M5.68,9.25A2.53,2.53,0,0,0,8.21,6.72V5.46a2.53,2.53,0,1,0-5.06,0V6.72A2.53,2.53,0,0,0,5.68,9.25ZM4.15,5.46a1.53,1.53,0,1,1,3.06,0V6.72a1.53,1.53,0,0,1-3.06,0ZM15.69,7.12V11.3a.5.5,0,0,1-.5.5H11.06v3.7a.5.5,0,0,1-.5.5H.81a.5.5,0,0,1-.5-.5V10.89a.52.52,0,0,1,.21-.41L2.75,8.94l.56.82-2,1.39V15h8.75V11.15l-2-1.39.57-.82,2.23,1.54a.49.49,0,0,1,.19.32h3.65V7.39l-.79-.55L14.47,6l1,.69A.52.52,0,0,1,15.69,7.12Zm-4.16-.79A2.53,2.53,0,0,0,14.06,3.8V2.53A2.53,2.53,0,0,0,9,2.53V3.8A2.54,2.54,0,0,0,11.53,6.33ZM10,2.53a1.53,1.53,0,1,1,3.06,0V3.8A1.53,1.53,0,0,1,10,3.8Z"/></svg>