<svg id="Layer_1" data-name="Layer 1" xmlns="http://www.w3.org/2000/svg" viewBox="0 0 16 16"><path d="M.91,13.57H6.82v1H.41a.5.5,0,0,1-.5-.5V10a.5.5,0,0,1,.22-.41L2.86,7.66l.57.82L.91,10.23ZM3.07,4.91V3.65a3.34,3.34,0,0,1,6.68,0V4.91a3.34,3.34,0,0,1-6.68,0Zm1,0a2.34,2.34,0,0,0,4.68,0V3.65a2.34,2.34,0,0,0-4.68,0ZM16,12.11a3.89,3.89,0,1,1-3.89-3.89A3.89,3.89,0,0,1,16,12.11Zm-6.78,0a2.88,2.88,0,0,0,.52,1.64l4-4a2.88,2.88,0,0,0-4.53,2.37Zm5.78,0a2.82,2.82,0,0,0-.54-1.66l-4,4a2.82,2.82,0,0,0,1.66.54A2.9,2.9,0,0,0,15,12.11Z"/></svg>