<svg id="Layer_1" data-name="Layer 1" xmlns="http://www.w3.org/2000/svg" viewBox="0 0 16 16"><path d="M1.11,13.58H6.76v1H.61a.5.5,0,0,1-.5-.5V10a.54.54,0,0,1,.22-.42L3.07,7.67l.56.82L1.11,10.24ZM3.27,4.92V3.66a3.35,3.35,0,0,1,6.69,0V4.92a3.35,3.35,0,0,1-6.69,0Zm1,0A2.35,2.35,0,0,0,9,4.92V3.66a2.35,2.35,0,0,0-4.69,0ZM14.9,12.59a3.16,3.16,0,0,1-.52,1.2l.71.71-.7.71-.72-.72a3.07,3.07,0,0,1-1.18.52v1h-1V15a3,3,0,0,1-1.32-.49l-.67.67-.71-.71.66-.66a2.92,2.92,0,0,1-.57-1.25h-1v-1h1a3,3,0,0,1,.55-1.38l-.64-.74.75-.66.6.69A3,3,0,0,1,11.39,9V8h1V9a3,3,0,0,1,1.17.45l.87-.68.62.79-.75.58a3,3,0,0,1,.62,1.47h1v1ZM9.82,12a2.07,2.07,0,1,0,2.07-2.07A2.07,2.07,0,0,0,9.82,12Z"/></svg>