<svg id="Layer_1" data-name="Layer 1" xmlns="http://www.w3.org/2000/svg" viewBox="0 0 16 16"><path d="M3.68,8.19,1.24,9.88V14.2h-1V9.63a.48.48,0,0,1,.2-.4L3.13,7.39ZM12,10l.55-.79L9.86,7.34l-.56.8ZM3.33,4.72V3.5a3.24,3.24,0,0,1,6.48,0V4.72a3.24,3.24,0,1,1-6.48,0Zm1,0a2.27,2.27,0,1,0,4.54,0V3.5a2.27,2.27,0,1,0-4.54,0Zm11.43,7.94v3.08h-1v-2.6H14v1.17H13V13.14H12v2.6h-1v-2.6H7.56v1.49a.48.48,0,0,1-.49.48H3.81a.48.48,0,0,1-.48-.48V10.7a.49.49,0,0,1,.48-.49H7.07a.49.49,0,0,1,.49.49v1.47h7.69A.48.48,0,0,1,15.73,12.66ZM6.59,11.18H4.3v3H6.59Z"/></svg>